<svg width="47" height="73" viewBox="0 0 47 73" fill="none" xmlns="http://www.w3.org/2000/svg">
<path d="M39.1679 47.6554L31.96 45.4873V39.5023C33.2685 37.574 34.2508 35.2533 34.6136 32.6735C36.2022 32.177 37.1084 30.2035 37.4449 28.5342C37.4891 28.5353 37.5276 28.5387 37.5737 28.5387C38.3887 28.5387 39.3747 28.3996 40.3373 27.9257C40.3439 27.9235 40.3486 27.9178 40.3551 27.9156C40.9069 27.6419 41.4502 27.2596 41.9494 26.7235C43.4289 25.1334 44.18 22.6113 44.18 19.2264C44.18 9.16419 34.7715 0 24.44 0C17.3543 0 14.6809 3.61569 13.6836 6.06535C13.3283 6.24744 12.9645 6.48607 12.611 6.83554C11.1146 8.31145 10.3532 10.9342 10.3428 14.6279V14.6324C10.3419 14.6573 10.34 14.6788 10.34 14.7025V22.6193V24.5521C9.87752 24.9298 9.4 25.674 9.4 27.1431C9.4 28.8509 10.3118 32.0176 12.3798 32.6713C12.7389 35.3211 13.7334 37.6271 15.04 39.517V45.4873L7.83208 47.6565C3.22044 49.042 0 54.0046 0 59.7239V71.2507C0 71.8761 0.42112 72.3816 0.94 72.3816C1.45888 72.3816 1.88 71.8761 1.88 71.2507V59.7239C1.88 55.0451 4.51482 50.9838 8.28798 49.8495L15.7901 47.5932C16.8486 48.4595 20.0088 50.7949 23.3064 50.8843L30.08 53.939V71.2507C30.08 71.8761 30.5011 72.3816 31.02 72.3816C31.5389 72.3816 31.96 71.8761 31.96 71.2507V53.1553C31.96 52.6837 31.7165 52.2618 31.3499 52.0956L26.9987 50.1322C28.936 49.3439 30.518 48.1564 31.2089 47.5909L38.7111 49.8472C42.4852 50.9838 45.12 55.0451 45.12 59.7239V71.2507C45.12 71.8761 45.5411 72.3816 46.06 72.3816C46.5789 72.3816 47 71.8761 47 71.2507V59.7239C47 54.0046 43.7796 49.042 39.1679 47.6554ZM16.92 41.771C18.784 43.6292 20.8718 44.7997 22.56 45.1311V48.5489C20.131 48.1722 17.8055 46.4871 16.92 45.778V41.771ZM24.44 45.1458C26.2345 44.8257 28.2808 43.6348 30.08 41.8083V45.778C29.1945 46.4871 26.869 48.1722 24.44 48.5489V45.1458ZM12.9541 24.5724C12.7032 24.4299 12.4588 24.3293 12.22 24.2558V22.9235C12.5227 22.3942 13.1835 21.84 14.4929 21.382C14.0342 22.79 13.3875 23.9153 12.9541 24.5724ZM12.22 20.0429V15.0034C13.1036 13.2244 16.4265 10.1787 23.5 10.1787C30.5735 10.1787 33.8964 13.2244 34.78 15.0034V20.0429C32.7364 18.6982 29.1391 18.0954 23.5 18.0954C17.8609 18.0954 14.2636 18.6982 12.22 20.0429ZM34.78 22.9235V24.2558C34.5412 24.3293 34.2959 24.4299 34.044 24.5724C33.6106 23.9187 32.9649 22.7957 32.5061 21.3809C33.8156 21.8389 34.4773 22.3942 34.78 22.9235ZM34.78 29.9683V26.6647C35.2378 26.391 35.5339 26.3752 35.5997 26.4182C35.6185 26.4306 35.72 26.6161 35.72 27.1431C35.72 27.9438 35.3684 29.232 34.78 29.9683ZM13.7795 8.60776C14.696 7.6815 15.7422 7.88394 15.8042 7.89638C16.3099 8.01627 16.8016 7.61591 16.9012 7.00745C17.0027 6.39447 16.6728 5.79958 16.1642 5.6763C16.1624 5.6763 16.1445 5.67291 16.1398 5.67178C17.3355 3.99456 19.7109 2.26193 24.44 2.26193C34.6625 2.26193 42.3 11.218 42.3 19.2264C42.3 21.4657 41.9268 23.1802 41.1993 24.3553C41.0498 21.7439 39.9679 19.3463 39.2046 18.4268C38.837 17.9846 38.243 17.9846 37.8754 18.4268C37.5079 18.869 37.5079 19.5838 37.8754 20.026C38.478 20.752 39.6567 23.4811 39.2384 25.9929C38.6425 26.2123 38.0437 26.2791 37.5286 26.2745C37.3819 25.3686 37.0191 24.8461 36.6591 24.5521V22.6193V14.7025C36.6591 14.6901 36.6534 14.681 36.6534 14.6686C36.6515 14.5928 36.6309 14.5204 36.6158 14.4458C36.6008 14.3723 36.5933 14.2988 36.5679 14.232C36.5632 14.2207 36.5651 14.2083 36.5604 14.1981C36.4476 13.9255 36.2906 13.6292 36.0969 13.3216C36.8273 13.3861 37.3641 13.5365 37.3735 13.5399C37.4487 13.5602 37.5248 13.5716 37.5991 13.5716C38.0211 13.5716 38.4056 13.2277 38.5118 12.7132C38.6368 12.107 38.3313 11.4951 37.8284 11.3436C37.7485 11.3198 35.9766 10.8075 34.1464 11.1603C33.2591 10.432 32.1236 9.74098 30.7258 9.18342C31.4261 9.05449 31.9506 9.0477 31.9609 9.0477C32.4798 9.04544 32.9 8.53877 32.8991 7.91561C32.8991 7.29132 32.4789 6.78578 31.96 6.78578C31.8434 6.78578 29.2246 6.80501 27.2995 8.23567C26.1508 8.03662 24.8931 7.91674 23.5 7.91674C22.7762 7.91674 22.0994 7.95633 21.4423 8.014C22.5421 7.12846 23.7115 6.7575 23.7294 6.75185C24.2323 6.59917 24.5368 5.98619 24.4118 5.38112C24.2858 4.77493 23.7764 4.40623 23.2716 4.55778C23.1296 4.60076 19.9477 5.59261 18.4334 8.49806C15.7619 9.15288 13.8255 10.2827 12.5029 11.4691C12.7596 10.1832 13.1854 9.20717 13.7795 8.60776ZM11.4003 26.4182C11.4661 26.3741 11.7613 26.391 12.22 26.6647V29.9683C11.6316 29.232 11.28 27.9438 11.28 27.1431C11.28 26.6161 11.3815 26.4306 11.4003 26.4182ZM14.1 26.4487C14.6706 25.6706 15.9894 23.6202 16.5985 20.8482C18.2604 20.5473 20.4986 20.3573 23.5 20.3573C26.5014 20.3573 28.7396 20.5473 30.4015 20.8482C31.0106 23.6202 32.3294 25.6695 32.9 26.4476V30.536C32.9 36.9836 27.5627 42.9766 23.5 42.9766C20.2824 42.9766 14.1 37.7221 14.1 30.536V26.4487Z" fill="white"/>
<path d="M10.34 64.4649C9.82114 64.4649 9.40002 64.9704 9.40002 65.5959V71.2507C9.40002 71.8761 9.82114 72.3816 10.34 72.3816C10.8589 72.3816 11.28 71.8761 11.28 71.2507V65.5959C11.28 64.9704 10.8589 64.4649 10.34 64.4649Z" fill="white"/>
<path d="M36.66 64.4649C36.1411 64.4649 35.72 64.9704 35.72 65.5959V71.2507C35.72 71.8761 36.1411 72.3816 36.66 72.3816C37.1789 72.3816 37.6 71.8761 37.6 71.2507V65.5959C37.6 64.9704 37.1789 64.4649 36.66 64.4649Z" fill="white"/>
<path d="M27.2599 57.6791C27.7791 57.6791 28.1999 57.1728 28.1999 56.5481C28.1999 55.9235 27.7791 55.4172 27.2599 55.4172C26.7408 55.4172 26.3199 55.9235 26.3199 56.5481C26.3199 57.1728 26.7408 57.6791 27.2599 57.6791Z" fill="white"/>
<path d="M19.74 57.6791C20.2592 57.6791 20.68 57.1728 20.68 56.5481C20.68 55.9235 20.2592 55.4172 19.74 55.4172C19.2209 55.4172 18.8 55.9235 18.8 56.5481C18.8 57.1728 19.2209 57.6791 19.74 57.6791Z" fill="white"/>
<path d="M27.2599 64.4649C27.7791 64.4649 28.1999 63.9586 28.1999 63.334C28.1999 62.7094 27.7791 62.203 27.2599 62.203C26.7408 62.203 26.3199 62.7094 26.3199 63.334C26.3199 63.9586 26.7408 64.4649 27.2599 64.4649Z" fill="white"/>
<path d="M19.74 64.4649C20.2592 64.4649 20.68 63.9586 20.68 63.334C20.68 62.7094 20.2592 62.203 19.74 62.203C19.2209 62.203 18.8 62.7094 18.8 63.334C18.8 63.9586 19.2209 64.4649 19.74 64.4649Z" fill="white"/>
<path d="M27.2599 71.2507C27.7791 71.2507 28.1999 70.7443 28.1999 70.1197C28.1999 69.4951 27.7791 68.9888 27.2599 68.9888C26.7408 68.9888 26.3199 69.4951 26.3199 70.1197C26.3199 70.7443 26.7408 71.2507 27.2599 71.2507Z" fill="white"/>
<path d="M19.74 71.2507C20.2592 71.2507 20.68 70.7443 20.68 70.1197C20.68 69.4951 20.2592 68.9888 19.74 68.9888C19.2209 68.9888 18.8 69.4951 18.8 70.1197C18.8 70.7443 19.2209 71.2507 19.74 71.2507Z" fill="white"/>
</svg>
