<svg width="33" height="42" viewBox="0 0 33 42" fill="none" xmlns="http://www.w3.org/2000/svg">
<mask id="path-1-inside-1_2004_9038" fill="white">
<path d="M32.8041 8.32388L31.4906 4.38638C31.4013 4.11797 31.1504 3.9375 30.8674 3.9375H30.0274L28.8636 0.448875C28.7743 0.180469 28.5234 0 28.2404 0H4.59746C4.3144 0 4.06352 0.180469 3.9742 0.448875L2.81045 3.9375H1.97047C1.68741 3.9375 1.43719 4.11797 1.34721 4.38638L0.033719 8.32388C-0.0332693 8.52403 0.000881589 8.74388 0.12435 8.91516C0.247819 9.08644 0.446156 9.1875 0.656972 9.1875H2.67778L5.25618 41.3963C5.28376 41.7375 5.56879 42 5.91095 42H26.9269C27.269 42 27.5541 41.7375 27.5817 41.3963L30.16 9.1875H32.1809C32.3917 9.1875 32.59 9.08644 32.7135 8.9145C32.8369 8.74387 32.8704 8.52403 32.8041 8.32388V8.32388ZM26.9794 32.4594H5.85841L4.5817 16.5145H28.2555L26.9794 32.4594ZM6.51713 40.6875L5.96349 33.7719H26.8743L26.3207 40.6875H6.51713ZM28.3612 15.2027H4.47662L3.99522 9.1875H28.8426L28.3612 15.2027ZM1.56788 7.875L2.44333 5.25H3.28396C3.56702 5.25 3.8179 5.06953 3.90722 4.80112L5.07097 1.3125H27.7675L28.9313 4.80112C29.0206 5.06953 29.2708 5.25 29.5539 5.25H30.3938L31.2693 7.875H1.56788Z"/>
</mask>
<path d="M32.8041 8.32388L31.4906 4.38638C31.4013 4.11797 31.1504 3.9375 30.8674 3.9375H30.0274L28.8636 0.448875C28.7743 0.180469 28.5234 0 28.2404 0H4.59746C4.3144 0 4.06352 0.180469 3.9742 0.448875L2.81045 3.9375H1.97047C1.68741 3.9375 1.43719 4.11797 1.34721 4.38638L0.033719 8.32388C-0.0332693 8.52403 0.000881589 8.74388 0.12435 8.91516C0.247819 9.08644 0.446156 9.1875 0.656972 9.1875H2.67778L5.25618 41.3963C5.28376 41.7375 5.56879 42 5.91095 42H26.9269C27.269 42 27.5541 41.7375 27.5817 41.3963L30.16 9.1875H32.1809C32.3917 9.1875 32.59 9.08644 32.7135 8.9145C32.8369 8.74387 32.8704 8.52403 32.8041 8.32388V8.32388ZM26.9794 32.4594H5.85841L4.5817 16.5145H28.2555L26.9794 32.4594ZM6.51713 40.6875L5.96349 33.7719H26.8743L26.3207 40.6875H6.51713ZM28.3612 15.2027H4.47662L3.99522 9.1875H28.8426L28.3612 15.2027ZM1.56788 7.875L2.44333 5.25H3.28396C3.56702 5.25 3.8179 5.06953 3.90722 4.80112L5.07097 1.3125H27.7675L28.9313 4.80112C29.0206 5.06953 29.2708 5.25 29.5539 5.25H30.3938L31.2693 7.875H1.56788Z" fill="#BC9A6C"/>
<path d="M32.8041 8.32388M31.4906 4.38637L23.8999 6.91235L23.9017 6.91792L31.4906 4.38637ZM30.0274 3.9375L22.4385 6.46905L24.2627 11.9375H30.0274V3.9375ZM28.8636 0.448875L21.2729 2.97485L21.2747 2.98042L28.8636 0.448875ZM3.9742 0.448875L11.5631 2.98042L11.565 2.97485L3.9742 0.448875ZM2.81045 3.9375V11.9375H8.57514L10.3993 6.46905L2.81045 3.9375ZM1.34721 4.38637L-6.23796 1.84369L-6.24168 1.85483L1.34721 4.38637ZM0.033719 8.32388L7.62012 10.8629L7.62261 10.8554L0.033719 8.32388ZM2.67778 9.1875L10.6523 8.54912L10.063 1.1875H2.67778V9.1875ZM5.25618 41.3963L-2.71832 42.0346L-2.71782 42.0408L5.25618 41.3963ZM27.5817 41.3963L35.5556 42.0408L35.5561 42.0346L27.5817 41.3963ZM30.16 9.1875V1.1875H22.7749L22.1856 8.54912L30.16 9.1875ZM32.7135 8.9145L26.2324 4.2246L26.2238 4.23638L26.2154 4.24819L32.7135 8.9145ZM32.8041 8.32388M26.9794 32.4594V40.4594H34.3648L34.9539 33.0976L26.9794 32.4594ZM5.85841 32.4594L-2.11606 33.098L-1.52663 40.4594H5.85841V32.4594ZM4.5817 16.5145V8.51453H-4.08447L-3.39278 17.1531L4.5817 16.5145ZM28.2555 16.5145L36.23 17.1527L36.9213 8.51453H28.2555V16.5145ZM6.51713 40.6875L-1.45735 41.3259L-0.868009 48.6875H6.51713V40.6875ZM5.96349 33.7719V25.7719H-2.70256L-2.01099 34.4104L5.96349 33.7719ZM26.8743 33.7719L34.8488 34.4104L35.5404 25.7719H26.8743V33.7719ZM26.3207 40.6875V48.6875H33.7058L34.2952 41.3259L26.3207 40.6875ZM28.3612 15.2027V23.2027H35.7465L36.3357 15.8409L28.3612 15.2027ZM4.47662 15.2027L-3.49789 15.8409L-2.90872 23.2027H4.47662V15.2027ZM3.99522 9.1875V1.1875H-4.6706L-3.97928 9.8257L3.99522 9.1875ZM28.8426 9.1875L36.8171 9.8257L37.5084 1.1875H28.8426V9.1875ZM1.56788 7.875L-6.0212 5.34402L-9.53331 15.875H1.56788V7.875ZM2.44333 5.25V-2.75H-3.32182L-5.14575 2.71902L2.44333 5.25ZM3.90722 4.80113L-3.68168 2.26958L-3.68353 2.27515L3.90722 4.80113ZM5.07097 1.3125V-6.6875H-0.693719L-2.51792 -1.21905L5.07097 1.3125ZM27.7675 1.3125L35.3564 -1.21905L33.5322 -6.6875H27.7675V1.3125ZM28.9313 4.80113L36.522 2.27515L36.5202 2.26958L28.9313 4.80113ZM30.3938 5.25L37.9829 2.71902L36.159 -2.75H30.3938V5.25ZM31.2693 7.875V15.875H42.3705L38.8584 5.34402L31.2693 7.875ZM32.8041 8.32388L40.393 5.79233L39.0795 1.85483L31.4906 4.38637L23.9017 6.91792L25.2152 10.8554L32.8041 8.32388ZM31.4906 4.38637L39.0814 1.8604C37.9011 -1.6864 34.5851 -4.0625 30.8674 -4.0625V3.9375V11.9375C27.7157 11.9375 24.9015 9.92234 23.8999 6.91235L31.4906 4.38637ZM30.8674 3.9375V-4.0625H30.0274V3.9375V11.9375H30.8674V3.9375ZM30.0274 3.9375L37.6163 1.40595L36.4525 -2.08267L28.8636 0.448875L21.2747 2.98042L22.4385 6.46905L30.0274 3.9375ZM28.8636 0.448875L36.4544 -2.0771C35.2741 -5.6239 31.9581 -8 28.2404 -8V0V8C25.0887 8 22.2745 5.98484 21.2729 2.97485L28.8636 0.448875ZM28.2404 0V-8H4.59746V0V8H28.2404V0ZM4.59746 0V-8C0.879681 -8 -2.43627 -5.6239 -3.61654 -2.0771L3.9742 0.448875L11.565 2.97485C10.5633 5.98483 7.74912 8 4.59746 8V0ZM3.9742 0.448875L-3.61469 -2.08267L-4.77844 1.40595L2.81045 3.9375L10.3993 6.46905L11.5631 2.98042L3.9742 0.448875ZM2.81045 3.9375V-4.0625H1.97047V3.9375V11.9375H2.81045V3.9375ZM1.97047 3.9375V-4.0625C-1.75998 -4.0625 -5.05796 -1.67638 -6.23795 1.8437L1.34721 4.38637L8.93238 6.92905C7.93234 9.91232 5.1348 11.9375 1.97047 11.9375V3.9375ZM1.34721 4.38637L-6.24168 1.85483L-7.55517 5.79233L0.033719 8.32388L7.62261 10.8554L8.9361 6.91792L1.34721 4.38637ZM0.033719 8.32388L-7.55268 5.78486C-8.44391 8.44779 -7.98175 11.3508 -6.3653 13.5932L0.12435 8.91516L6.614 4.23708C7.98352 6.13693 8.37737 8.60027 7.62012 10.8629L0.033719 8.32388ZM0.12435 8.91516L-6.3653 13.5932C-4.73244 15.8584 -2.11537 17.1875 0.656972 17.1875V9.1875V1.1875C3.00768 1.1875 5.22808 2.31447 6.614 4.23708L0.12435 8.91516ZM0.656972 9.1875V17.1875H2.67778V9.1875V1.1875H0.656972V9.1875ZM2.67778 9.1875L-5.2967 9.82588L-2.71831 42.0346L5.25618 41.3963L13.2307 40.7579L10.6523 8.54912L2.67778 9.1875ZM5.25618 41.3963L-2.71782 42.0408C-2.35396 46.5423 1.40593 50 5.91095 50V42V34C9.73164 34 12.9215 36.9327 13.2302 40.7517L5.25618 41.3963ZM5.91095 42V50H26.9269V42V34H5.91095V42ZM26.9269 42V50C31.4319 50 35.1918 46.5423 35.5556 42.0408L27.5817 41.3963L19.6077 40.7517C19.9164 36.9327 23.1062 34 26.9269 34V42ZM27.5817 41.3963L35.5561 42.0346L38.1345 9.82588L30.16 9.1875L22.1856 8.54912L19.6072 40.7579L27.5817 41.3963ZM30.16 9.1875V17.1875H32.1809V9.1875V1.1875H30.16V9.1875ZM32.1809 9.1875V17.1875C34.956 17.1875 37.5782 15.8554 39.2116 13.5808L32.7135 8.9145L26.2154 4.24819C27.6018 2.31745 29.8274 1.1875 32.1809 1.1875V9.1875ZM32.7135 8.9145L39.1946 13.6044C40.8344 11.3382 41.2687 8.43484 40.398 5.80728L32.8041 8.32388L25.2102 10.8405C24.4721 8.61322 24.8395 6.14951 26.2324 4.2246L32.7135 8.9145ZM32.8041 8.32388M26.9794 32.4594V24.4594H5.85841V32.4594V40.4594H26.9794V32.4594ZM5.85841 32.4594L13.8329 31.8209L12.5562 15.876L4.5817 16.5145L-3.39278 17.1531L-2.11606 33.098L5.85841 32.4594ZM4.5817 16.5145V24.5145H28.2555V16.5145V8.51453H4.5817V16.5145ZM28.2555 16.5145L20.281 15.8763L19.0049 31.8212L26.9794 32.4594L34.9539 33.0976L36.23 17.1527L28.2555 16.5145ZM6.51713 40.6875L14.4916 40.0491L13.938 33.1335L5.96349 33.7719L-2.01099 34.4104L-1.45735 41.3259L6.51713 40.6875ZM5.96349 33.7719V41.7719H26.8743V33.7719V25.7719H5.96349V33.7719ZM26.8743 33.7719L18.8998 33.1335L18.3462 40.0491L26.3207 40.6875L34.2952 41.3259L34.8488 34.4104L26.8743 33.7719ZM26.3207 40.6875V32.6875H6.51713V40.6875V48.6875H26.3207V40.6875ZM28.3612 15.2027V7.20269H4.47662V15.2027V23.2027H28.3612V15.2027ZM4.47662 15.2027L12.4511 14.5645L11.9697 8.5493L3.99522 9.1875L-3.97928 9.8257L-3.49789 15.8409L4.47662 15.2027ZM3.99522 9.1875V17.1875H28.8426V9.1875V1.1875H3.99522V9.1875ZM28.8426 9.1875L20.8681 8.5493L20.3867 14.5645L28.3612 15.2027L36.3357 15.8409L36.8171 9.8257L28.8426 9.1875ZM1.56788 7.875L9.15696 10.406L10.0324 7.78098L2.44333 5.25L-5.14575 2.71902L-6.0212 5.34402L1.56788 7.875ZM2.44333 5.25V13.25H3.28396V5.25V-2.75H2.44333V5.25ZM3.28396 5.25V13.25C7.00174 13.25 10.3177 10.8739 11.498 7.3271L3.90722 4.80113L-3.68353 2.27515C-2.6819 -0.734833 0.132302 -2.75 3.28396 -2.75V5.25ZM3.90722 4.80113L11.4961 7.33267L12.6599 3.84405L5.07097 1.3125L-2.51792 -1.21905L-3.68167 2.26958L3.90722 4.80113ZM5.07097 1.3125V9.3125H27.7675V1.3125V-6.6875H5.07097V1.3125ZM27.7675 1.3125L20.1786 3.84405L21.3424 7.33267L28.9313 4.80113L36.5202 2.26958L35.3564 -1.21905L27.7675 1.3125ZM28.9313 4.80113L21.3405 7.3271C22.5178 10.865 25.8267 13.25 29.5539 13.25V5.25V-2.75C32.7149 -2.75 35.5233 -0.725952 36.522 2.27515L28.9313 4.80113ZM29.5539 5.25V13.25H30.3938V5.25V-2.75H29.5539V5.25ZM30.3938 5.25L22.8048 7.78098L23.6802 10.406L31.2693 7.875L38.8584 5.34402L37.9829 2.71902L30.3938 5.25ZM31.2693 7.875V-0.125H1.56788V7.875V15.875H31.2693V7.875Z" fill="#BC9A6C" mask="url(#path-1-inside-1_2004_9038)"/>
<mask id="path-3-inside-2_2004_9038" fill="white">
<path d="M16.4189 18.375C13.8182 18.375 11.7021 21.1719 11.7021 24.6094C11.7021 28.0468 13.8182 30.8438 16.4189 30.8438C19.0196 30.8438 21.1357 28.0468 21.1357 24.6094C21.1357 21.1719 19.0196 18.375 16.4189 18.375ZM13.0156 24.6094C13.0156 23.4012 13.3191 22.2954 13.8202 21.4384C13.8103 21.5657 13.7919 21.6891 13.7919 21.8203C13.7919 23.7523 14.9458 25.2656 16.4189 25.2656C17.1183 25.2656 17.7324 26.2625 17.7324 27.3984C17.7324 28.5344 17.1183 29.5312 16.4189 29.5312C14.5426 29.5312 13.0156 27.3236 13.0156 24.6094ZM19.0177 27.7804C19.0275 27.6531 19.0459 27.5297 19.0459 27.3984C19.0459 25.4664 17.892 23.9531 16.4189 23.9531C15.7195 23.9531 15.1054 22.9563 15.1054 21.8203C15.1054 20.6843 15.7195 19.6875 16.4189 19.6875C18.2952 19.6875 19.8222 21.8951 19.8222 24.6094C19.8222 25.8175 19.5181 26.9233 19.0177 27.7804Z"/>
</mask>
<path d="M16.4189 18.375C13.8182 18.375 11.7021 21.1719 11.7021 24.6094C11.7021 28.0468 13.8182 30.8438 16.4189 30.8438C19.0196 30.8438 21.1357 28.0468 21.1357 24.6094C21.1357 21.1719 19.0196 18.375 16.4189 18.375ZM13.0156 24.6094C13.0156 23.4012 13.3191 22.2954 13.8202 21.4384C13.8103 21.5657 13.7919 21.6891 13.7919 21.8203C13.7919 23.7523 14.9458 25.2656 16.4189 25.2656C17.1183 25.2656 17.7324 26.2625 17.7324 27.3984C17.7324 28.5344 17.1183 29.5312 16.4189 29.5312C14.5426 29.5312 13.0156 27.3236 13.0156 24.6094ZM19.0177 27.7804C19.0275 27.6531 19.0459 27.5297 19.0459 27.3984C19.0459 25.4664 17.892 23.9531 16.4189 23.9531C15.7195 23.9531 15.1054 22.9563 15.1054 21.8203C15.1054 20.6843 15.7195 19.6875 16.4189 19.6875C18.2952 19.6875 19.8222 21.8951 19.8222 24.6094C19.8222 25.8175 19.5181 26.9233 19.0177 27.7804Z" fill="#BC9A6C"/>
<path d="M13.8202 21.4384L21.7963 22.0556L6.91395 17.4005L13.8202 21.4384ZM19.0177 27.7804L11.0415 27.1632L25.9262 31.8143L19.0177 27.7804ZM16.4189 18.375V10.375C12.0579 10.375 8.70252 12.7367 6.70543 15.3764C4.7094 18.0146 3.70215 21.3047 3.70215 24.6094H11.7021H19.7021C19.7021 24.4766 19.7529 24.6495 19.4651 25.0299C19.1762 25.4118 18.1792 26.375 16.4189 26.375V18.375ZM11.7021 24.6094H3.70215C3.70215 27.9141 4.7094 31.2041 6.70543 33.8424C8.70252 36.482 12.0579 38.8438 16.4189 38.8438V30.8438V22.8438C18.1792 22.8438 19.1762 23.807 19.4651 24.1888C19.7529 24.5693 19.7021 24.7421 19.7021 24.6094H11.7021ZM16.4189 30.8438V38.8438C20.78 38.8438 24.1353 36.482 26.1324 33.8424C28.1284 31.2041 29.1357 27.9141 29.1357 24.6094H21.1357H13.1357C13.1357 24.7421 13.0849 24.5693 13.3727 24.1888C13.6616 23.807 14.6586 22.8438 16.4189 22.8438V30.8438ZM21.1357 24.6094H29.1357C29.1357 21.3047 28.1284 18.0146 26.1324 15.3764C24.1353 12.7367 20.78 10.375 16.4189 10.375V18.375V26.375C14.6586 26.375 13.6616 25.4118 13.3727 25.0299C13.0849 24.6495 13.1357 24.4766 13.1357 24.6094H21.1357ZM13.0156 24.6094H21.0156C21.0156 24.6714 21.0083 24.7675 20.9743 24.8984C20.9415 25.0254 20.873 25.2254 20.7264 25.4762L13.8202 21.4384L6.91395 17.4005C5.63618 19.586 5.01564 22.1067 5.01564 24.6094H13.0156ZM13.8202 21.4384L5.844 20.8212C5.84822 20.7667 5.85193 20.7308 5.85023 20.748C5.84696 20.7811 5.85085 20.7415 5.84576 20.7929C5.84349 20.8159 5.83999 20.8515 5.83619 20.8928C5.82184 21.0482 5.79192 21.3933 5.79192 21.8203H13.7919H21.7919C21.7919 21.9737 21.7866 22.1007 21.7812 22.1916C21.776 22.2804 21.7702 22.3444 21.7685 22.3629C21.7676 22.3726 21.7672 22.3767 21.768 22.3682C21.7685 22.3638 21.7689 22.3592 21.7698 22.3503C21.7706 22.3425 21.7717 22.331 21.773 22.3186C21.7775 22.2728 21.7872 22.1737 21.7963 22.0556L13.8202 21.4384ZM13.7919 21.8203H5.79192C5.79192 26.0208 8.64806 33.2656 16.4189 33.2656V25.2656V17.2656C18.6329 17.2656 20.1729 18.444 20.9147 19.4168C21.6278 20.3521 21.7919 21.2479 21.7919 21.8203H13.7919ZM16.4189 25.2656V33.2656C12.7813 33.2656 10.9679 30.8184 10.5262 30.1014C9.92303 29.122 9.73241 28.1782 9.73241 27.3984H17.7324H25.7324C25.7324 25.4827 25.2348 23.4725 24.1496 21.7107C23.2261 20.2112 20.756 17.2656 16.4189 17.2656V25.2656ZM17.7324 27.3984H9.73241C9.73241 26.6186 9.92303 25.6749 10.5262 24.6955C10.9679 23.9784 12.7813 21.5312 16.4189 21.5312V29.5312V37.5312C20.756 37.5312 23.2261 34.5857 24.1496 33.0862C25.2348 31.3243 25.7324 29.3142 25.7324 27.3984H17.7324ZM16.4189 29.5312V21.5312C18.8603 21.5312 20.2024 22.9723 20.5936 23.538C21.0101 24.1403 21.0156 24.5417 21.0156 24.6094H13.0156H5.01564C5.01564 27.3913 5.78464 30.2537 7.4337 32.6383C9.05744 34.9864 12.1012 37.5312 16.4189 37.5312V29.5312ZM19.0177 27.7804L26.9938 28.3976C26.9896 28.4521 26.9859 28.488 26.9876 28.4708C26.9909 28.4376 26.987 28.4772 26.9921 28.4258C26.9943 28.4028 26.9978 28.3672 27.0016 28.326C27.016 28.1705 27.0459 27.8255 27.0459 27.3984H19.0459H11.0459C11.0459 27.2451 11.0513 27.1181 11.0566 27.0271C11.0618 26.9384 11.0676 26.8743 11.0693 26.8558C11.0702 26.8461 11.0706 26.842 11.0698 26.8506C11.0694 26.8549 11.0689 26.8595 11.068 26.8685C11.0672 26.8762 11.0661 26.8878 11.0649 26.9001C11.0604 26.9459 11.0506 27.045 11.0415 27.1632L19.0177 27.7804ZM19.0459 27.3984H27.0459C27.0459 23.1979 24.1898 15.9531 16.4189 15.9531V23.9531V31.9531C14.205 31.9531 12.6649 30.7748 11.9232 29.802C11.21 28.8667 11.0459 27.9708 11.0459 27.3984H19.0459ZM16.4189 23.9531V15.9531C20.0566 15.9531 21.8699 18.4003 22.3116 19.1174C22.9148 20.0968 23.1054 21.0405 23.1054 21.8203H15.1054H7.10542C7.10542 23.7361 7.60306 25.7462 8.68818 27.508C9.61171 29.0075 12.0818 31.9531 16.4189 31.9531V23.9531ZM15.1054 21.8203H23.1054C23.1054 22.6001 22.9148 23.5438 22.3116 24.5232C21.8699 25.2403 20.0566 27.6875 16.4189 27.6875V19.6875V11.6875C12.0818 11.6875 9.61171 14.6331 8.68818 16.1326C7.60306 17.8944 7.10542 19.9045 7.10542 21.8203H15.1054ZM16.4189 19.6875V27.6875C13.9776 27.6875 12.6354 26.2465 12.2442 25.6808C11.8277 25.0785 11.8222 24.6771 11.8222 24.6094H19.8222H27.8222C27.8222 21.8274 27.0532 18.9651 25.4041 16.5804C23.7804 14.2323 20.7366 11.6875 16.4189 11.6875V19.6875ZM19.8222 24.6094H11.8222C11.8222 24.5458 11.8298 24.4494 11.8635 24.3192C11.8962 24.193 11.9641 23.9949 12.1091 23.7465L19.0177 27.7804L25.9262 31.8143C27.1994 29.6337 27.8222 27.1155 27.8222 24.6094H19.8222Z" fill="#BC9A6C" mask="url(#path-3-inside-2_2004_9038)"/>
<path d="M9.91101 4.59375C9.91101 4.8185 9.88778 5.03779 9.84558 5.25H7.23035C7.18814 5.0378 7.16492 4.8185 7.16492 4.59375C7.16492 4.369 7.18814 4.1497 7.23035 3.9375H9.84558C9.88778 4.14971 9.91101 4.369 9.91101 4.59375Z" fill="#BC9A6C" stroke="#BC9A6C" stroke-width="8"/>
<mask id="path-6-inside-3_2004_9038" fill="white">
<path d="M25.6134 3.9375H15.7622C15.3997 3.9375 15.1055 4.2315 15.1055 4.59375C15.1055 4.956 15.3997 5.25 15.7622 5.25H25.6134C25.976 5.25 26.2702 4.956 26.2702 4.59375C26.2702 4.2315 25.976 3.9375 25.6134 3.9375Z"/>
</mask>
<path d="M25.6134 3.9375H15.7622C15.3997 3.9375 15.1055 4.2315 15.1055 4.59375C15.1055 4.956 15.3997 5.25 15.7622 5.25H25.6134C25.976 5.25 26.2702 4.956 26.2702 4.59375C26.2702 4.2315 25.976 3.9375 25.6134 3.9375Z" fill="#BC9A6C"/>
<path d="M25.6134 3.9375V-4.0625H15.7622V3.9375V11.9375H25.6134V3.9375ZM15.7622 3.9375V-4.0625C10.9871 -4.0625 7.10547 -0.192493 7.10547 4.59375H15.1055H23.1055C23.1055 8.65549 19.8123 11.9375 15.7622 11.9375V3.9375ZM15.1055 4.59375H7.10547C7.10547 9.37999 10.9871 13.25 15.7622 13.25V5.25V-2.75C19.8123 -2.75 23.1055 0.532007 23.1055 4.59375H15.1055ZM15.7622 5.25V13.25H25.6134V5.25V-2.75H15.7622V5.25ZM25.6134 5.25V13.25C30.3885 13.25 34.2702 9.37999 34.2702 4.59375H26.2702H18.2702C18.2702 0.532007 21.5634 -2.75 25.6134 -2.75V5.25ZM26.2702 4.59375H34.2702C34.2702 -0.192493 30.3885 -4.0625 25.6134 -4.0625V3.9375V11.9375C21.5634 11.9375 18.2702 8.65549 18.2702 4.59375H26.2702Z" fill="#BC9A6C" mask="url(#path-6-inside-3_2004_9038)"/>
</svg>
