<svg width="277" height="270" viewBox="0 0 277 270" fill="none" xmlns="http://www.w3.org/2000/svg">
<g opacity="0.91">
<g opacity="0.91">
<g opacity="0.91">
<g opacity="0.91">
<g opacity="0.91">
<path opacity="0.91" d="M4.7728 9.58297C4.14557 9.57982 3.52522 9.45261 2.94768 9.2087C2.37014 8.96479 1.84689 8.60904 1.40833 8.16207C0.523888 7.2606 0.0318822 6.04783 0.039017 4.78699C0.0381922 3.52651 0.532246 2.31575 1.41558 1.41372C2.3227 0.55333 3.52608 0.0719835 4.77828 0.0686212C6.03049 0.065259 7.23637 0.540136 8.14813 1.39564C9.02958 2.30899 9.52504 3.52512 9.532 4.79241C9.52955 6.05259 9.03291 7.26188 8.14813 8.16207C7.70965 8.61214 7.18494 8.96983 6.60512 9.21391C6.02531 9.45799 5.40221 9.58349 4.7728 9.58297V9.58297Z" fill="#BC9A6C"/>
</g>
</g>
<g opacity="0.91">
<g opacity="0.91">
<path opacity="0.91" d="M242.346 4.79227C242.344 4.16626 242.465 3.54587 242.703 2.96651C242.941 2.38716 243.291 1.86018 243.733 1.41568C244.175 0.971182 244.701 0.617858 245.28 0.375885C245.86 0.133912 246.481 0.00802866 247.109 0.00542277V0.00542277C247.738 0.00588151 248.36 0.130302 248.94 0.371517C249.521 0.612733 250.047 0.965978 250.49 1.41091C250.933 1.85584 251.283 2.38367 251.52 2.96399C251.757 3.54432 251.877 4.16567 251.872 4.79227V4.79227C251.876 6.05645 251.377 7.27059 250.484 8.16857C249.591 9.06654 248.377 9.57508 247.109 9.58274V9.58274C245.842 9.57177 244.63 9.06216 243.738 8.16491C242.846 7.26766 242.346 6.05544 242.346 4.79227V4.79227ZM218.119 4.79227C218.115 4.16659 218.236 3.54642 218.473 2.9672C218.711 2.38799 219.061 1.86106 219.502 1.41654C219.944 0.972014 220.469 0.618595 221.048 0.376472C221.627 0.134349 222.248 0.00826458 222.876 0.00542277V0.00542277C223.505 0.00516204 224.128 0.129078 224.708 0.370017C225.289 0.610957 225.816 0.964148 226.259 1.4092C226.702 1.85425 227.052 2.38235 227.289 2.96301C227.526 3.54367 227.646 4.16539 227.641 4.79227V4.79227C227.646 6.0572 227.147 7.27244 226.253 8.17078C225.36 9.06912 224.145 9.57699 222.876 9.58274V9.58274C221.609 9.57129 220.398 9.06136 219.507 8.16406C218.616 7.26675 218.117 6.0548 218.119 4.79227V4.79227ZM193.887 4.79227C193.882 4.16591 194.002 3.54474 194.238 2.96455C194.475 2.38435 194.825 1.85659 195.267 1.41166C195.71 0.966726 196.236 0.613415 196.816 0.372071C197.396 0.130727 198.018 0.00611808 198.647 0.00542277V0.00542277C199.275 0.00731585 199.897 0.132714 200.476 0.374435C201.056 0.616157 201.582 0.969454 202.024 1.4141C202.467 1.85874 202.817 2.386 203.054 2.96568C203.292 3.54535 203.413 4.16607 203.409 4.79227V4.79227C203.411 6.05588 202.912 7.26892 202.019 8.16647C201.127 9.06403 199.914 9.57319 198.647 9.58274V9.58274C198.018 9.57966 197.397 9.4533 196.818 9.21089C196.239 8.96848 195.713 8.61476 195.271 8.16992C194.83 7.72509 194.48 7.19785 194.242 6.61831C194.005 6.03877 193.884 5.41828 193.887 4.79227V4.79227ZM169.66 4.79227C169.655 4.16591 169.774 3.54474 170.011 2.96455C170.248 2.38435 170.597 1.85659 171.04 1.41166C171.482 0.966726 172.008 0.613415 172.588 0.372071C173.168 0.130727 173.79 0.00611808 174.419 0.00542277V0.00542277C175.047 0.00755308 175.669 0.133126 176.248 0.374953C176.827 0.616781 177.353 0.970116 177.795 1.41474C178.238 1.85936 178.588 2.38653 178.825 2.96609C179.063 3.54565 179.183 4.16622 179.18 4.79227V4.79227C179.181 6.05511 178.682 7.26733 177.79 8.16469C176.899 9.06204 175.688 9.57176 174.421 9.58274V9.58274C173.152 9.57604 171.938 9.06774 171.046 8.16951C170.153 7.27127 169.654 6.05658 169.66 4.79227ZM145.432 4.79227C145.426 4.16686 145.544 3.54645 145.78 2.96676C146.015 2.38708 146.364 1.85958 146.805 1.41465C147.246 0.969716 147.771 0.616138 148.35 0.374281C148.928 0.132423 149.549 0.00706346 150.177 0.00542277V0.00542277C150.806 0.00589314 151.429 0.130201 152.011 0.371219C152.592 0.612237 153.119 0.965223 153.563 1.40994C154.007 1.85465 154.359 2.38235 154.598 2.96276C154.837 3.54318 154.958 4.1649 154.956 4.79227V4.79227C154.957 6.05839 154.455 7.27332 153.559 8.17114C152.663 9.06895 151.447 9.57652 150.177 9.58274V9.58274C148.911 9.5727 147.7 9.06282 146.811 8.16484C145.922 7.26687 145.426 6.05406 145.432 4.79227V4.79227ZM121.183 4.79227C121.179 4.16617 121.299 3.54543 121.536 2.96567C121.773 2.3859 122.123 1.85852 122.565 1.41379C123.007 0.969046 123.533 0.6157 124.112 0.374018C124.692 0.132336 125.314 0.00707552 125.942 0.00542277V0.00542277C126.57 0.0056374 127.193 0.129918 127.773 0.371092C128.353 0.612267 128.88 0.965561 129.322 1.41059C129.765 1.85562 130.114 2.38357 130.351 2.96398C130.588 3.54439 130.707 4.16578 130.701 4.79227V4.79227C130.707 6.05672 130.209 7.2717 129.316 8.17003C128.423 9.06837 127.209 9.57652 125.94 9.58274V9.58274C124.673 9.57176 123.462 9.06198 122.571 8.16458C121.68 7.26717 121.181 6.05494 121.183 4.79227V4.79227ZM96.9551 4.79227C96.951 4.16663 97.0708 3.54633 97.3076 2.96692C97.5445 2.38751 97.8937 1.86037 98.3353 1.4157C98.7769 0.971032 99.3022 0.617574 99.8811 0.375574C100.46 0.133574 101.081 0.00778771 101.709 0.00542277C102.338 0.00466937 102.96 0.128304 103.541 0.36916C104.121 0.610016 104.648 0.963304 105.091 1.40855C105.533 1.8538 105.882 2.38215 106.119 2.96299C106.355 3.54383 106.473 4.1656 106.466 4.79227V4.79227C106.47 5.41824 106.349 6.03872 106.111 6.61818C105.874 7.19763 105.524 7.72469 105.082 8.16917C104.639 8.61364 104.113 8.96681 103.534 9.20844C102.955 9.45007 102.333 9.57542 101.705 9.57731V9.57731C100.439 9.56871 99.2283 9.0602 98.3379 8.16324C97.4475 7.26629 96.9502 6.05406 96.9551 4.79227V4.79227ZM72.7274 4.79227C72.7236 4.16609 72.8438 3.54531 73.0812 2.96553C73.3186 2.38576 73.6685 1.85839 74.1108 1.41368C74.5531 0.968961 75.0792 0.615644 75.6588 0.373984C76.2384 0.132325 76.8602 0.00707661 77.4884 0.00542277V0.00542277C78.1162 0.00826458 78.7372 0.134349 79.3161 0.376472C79.895 0.618595 80.4203 0.972014 80.8621 1.41654C81.3039 1.86106 81.6535 2.38799 81.8909 2.9672C82.1283 3.54642 82.2489 4.16659 82.2458 4.79227V4.79227C82.2459 6.05437 81.7462 7.2655 80.8554 8.1625C79.9646 9.0595 78.7547 9.56988 77.4884 9.58274V9.58274C76.2215 9.57223 75.0101 9.06261 74.1188 8.1651C73.2275 7.26759 72.7286 6.05509 72.731 4.79227H72.7274ZM48.4907 4.79227C48.4859 4.16541 48.6055 3.5438 48.8426 2.96317C49.0797 2.38254 49.4296 1.85436 49.8723 1.409C50.3149 0.963633 50.8415 0.609875 51.4218 0.368068C52.0021 0.12626 52.6246 0.00117321 53.2535 0C54.5214 0.00717293 55.7347 0.515069 56.6275 1.41236C57.5203 2.30966 58.0197 3.52315 58.0163 4.78685V4.78685C58.0183 6.05096 57.5187 7.26457 56.6265 8.16299C55.7343 9.06141 54.5218 9.57176 53.2535 9.58274V9.58274C51.985 9.57556 50.7712 9.06717 49.8783 8.16909C48.9854 7.27101 48.4864 6.0566 48.4907 4.79227V4.79227ZM24.2667 4.79227C24.2609 4.16617 24.3796 3.54512 24.6159 2.96496C24.8521 2.38479 25.2013 1.85698 25.6432 1.41198C26.0852 0.966975 26.6111 0.613576 27.1908 0.372166C27.7704 0.130757 28.3922 0.00611243 29.0204 0.00542277V0.00542277C29.6486 0.00707552 30.2703 0.132336 30.8498 0.374018C31.4293 0.6157 31.9552 0.969046 32.3974 1.41379C32.8396 1.85852 33.1893 2.3859 33.4265 2.96567C33.6637 3.54543 33.7837 4.16617 33.7797 4.79227V4.79227C33.7835 6.05583 33.2848 7.26943 32.3928 8.1673C31.5008 9.06517 30.2882 9.57413 29.0204 9.58274V9.58274C27.7529 9.57509 26.5403 9.06625 25.6489 8.16802C24.7576 7.26978 24.2604 6.05562 24.2667 4.79227V4.79227Z" fill="#BC9A6C"/>
</g>
</g>
<g opacity="0.91">
<g opacity="0.91">
<path opacity="0.91" d="M271.333 9.57749C270.707 9.578 270.087 9.45366 269.511 9.21181C268.934 8.96996 268.411 8.61548 267.974 8.16926C267.085 7.26736 266.582 6.05676 266.57 4.79239C266.582 3.52763 267.085 2.3167 267.974 1.41371C268.881 0.552277 270.085 0.070275 271.338 0.0669122C272.591 0.0635495 273.798 0.539081 274.71 1.39563C275.596 2.30727 276.098 3.52301 276.112 4.79239C276.102 6.05599 275.601 7.2665 274.714 8.16926C274.274 8.61794 273.748 8.97383 273.167 9.21575C272.586 9.45768 271.962 9.5807 271.333 9.57749V9.57749Z" fill="#BC9A6C"/>
</g>
</g>
</g>
<g opacity="0.91">
<g opacity="0.91">
<g opacity="0.91">
<path opacity="0.91" d="M4.77265 35.9411C3.82979 35.9202 2.91359 35.6251 2.13666 35.0923C1.35972 34.5594 0.755864 33.812 0.399272 32.9417C0.0426806 32.0715 -0.0510865 31.1164 0.129441 30.1938C0.309968 29.2711 0.756916 28.4212 1.41544 27.7483C2.31665 26.8584 3.5356 26.3618 4.80414 26.3677C6.07268 26.3737 7.28694 26.8816 8.17972 27.7799C9.07251 28.6781 9.5707 29.8931 9.56475 31.1575C9.5588 32.4219 9.04915 33.6322 8.14795 34.522C7.25136 35.4154 6.0403 35.9246 4.77265 35.9411V35.9411Z" fill="#BC9A6C"/>
</g>
</g>
<g opacity="0.91">
<g opacity="0.91">
<path opacity="0.91" d="M242.346 31.1476C242.343 30.5215 242.464 29.9009 242.702 29.3213C242.939 28.7417 243.289 28.2145 243.732 27.7699C244.174 27.3253 244.7 26.972 245.28 26.7302C245.859 26.4883 246.481 26.3628 247.109 26.3606V26.3606C247.737 26.3618 248.359 26.4868 248.939 26.7283C249.519 26.9698 250.045 27.3231 250.487 27.768C250.929 28.2128 251.279 28.7404 251.516 29.3204C251.753 29.9004 251.873 30.5214 251.868 31.1476V31.1476C251.873 32.4112 251.374 33.625 250.482 34.5225C249.59 35.4201 248.377 35.9279 247.109 35.9346V35.9346C245.841 35.9265 244.629 35.4183 243.736 34.5212C242.843 33.6241 242.344 32.4111 242.346 31.1476V31.1476ZM218.118 31.1476C218.114 29.8844 218.612 28.6709 219.504 27.7734C220.396 26.8759 221.608 26.3678 222.876 26.3606C224.144 26.3659 225.359 26.8732 226.253 27.7708C227.146 28.6685 227.645 29.8832 227.64 31.1476V31.1476C227.642 32.4119 227.142 33.6257 226.25 34.5239C225.357 35.4221 224.144 35.9318 222.876 35.9419V35.9419C221.609 35.9285 220.399 35.4175 219.508 34.5198C218.617 33.6221 218.118 32.4103 218.118 31.1476V31.1476ZM193.887 31.1476C193.882 30.5213 194.002 29.9002 194.239 29.3201C194.476 28.74 194.825 28.2124 195.268 27.7675C195.71 27.3226 196.236 26.9692 196.816 26.7278C197.396 26.4864 198.018 26.3616 198.646 26.3606V26.3606C199.915 26.3654 201.131 26.8724 202.025 27.7701C202.919 28.6678 203.419 29.8827 203.415 31.1476V31.1476C203.413 32.4094 202.912 33.6196 202.02 34.5151C201.128 35.4105 199.918 35.9187 198.652 35.9292V35.9292C198.024 35.9271 197.403 35.8017 196.823 35.5603C196.244 35.3188 195.718 34.966 195.276 34.522C194.833 34.078 194.483 33.5515 194.245 32.9725C194.007 32.3935 193.885 31.7734 193.887 31.1476V31.1476ZM169.667 31.1476C169.661 30.5207 169.779 29.8989 170.016 29.3179C170.252 28.737 170.602 28.2084 171.044 27.7629C171.487 27.3173 172.013 26.9635 172.594 26.7219C173.174 26.4803 173.797 26.3557 174.426 26.3552V26.3552C175.054 26.3583 175.675 26.4848 176.254 26.7274C176.833 26.97 177.358 27.3239 177.8 27.769C178.241 28.2142 178.59 28.7417 178.827 29.3214C179.064 29.9011 179.184 30.5217 179.18 31.1476C179.183 32.4111 178.684 33.6243 177.792 34.5216C176.899 35.4189 175.686 35.927 174.419 35.9346V35.9346C173.791 35.9328 173.17 35.8073 172.591 35.5654C172.012 35.3236 171.486 34.9701 171.045 34.5253C170.603 34.0805 170.254 33.5531 170.018 32.9735C169.781 32.3938 169.662 31.7734 169.667 31.1476V31.1476ZM145.432 31.1476C145.426 30.5231 145.543 29.9034 145.778 29.3243C146.013 28.7452 146.36 28.2181 146.8 27.7732C147.24 27.3284 147.764 26.9746 148.342 26.7321C148.919 26.4897 149.539 26.3635 150.166 26.3606V26.3606C150.795 26.3604 151.418 26.4843 151.998 26.7253C152.579 26.9662 153.106 27.3194 153.549 27.7645C153.992 28.2095 154.342 28.7376 154.579 29.3183C154.816 29.899 154.936 30.5207 154.93 31.1476V31.1476C154.935 32.4107 154.437 33.6239 153.544 34.5206C152.652 35.4173 151.438 35.924 150.171 35.9292V35.9292C148.907 35.9192 147.699 35.4104 146.811 34.5141C145.922 33.6179 145.427 32.4074 145.432 31.1476V31.1476ZM121.183 31.1476C121.179 30.5213 121.299 29.9004 121.536 29.3204C121.773 28.7405 122.123 28.2128 122.565 27.7677C123.007 27.3225 123.533 26.9686 124.112 26.7263C124.692 26.4839 125.313 26.3578 125.942 26.3552C126.57 26.3569 127.192 26.4823 127.772 26.7243C128.352 26.9664 128.878 27.3202 129.321 27.7655C129.763 28.2109 130.112 28.7389 130.349 29.3193C130.586 29.8997 130.706 30.5211 130.701 31.1476V31.1476C130.704 31.7739 130.583 32.3946 130.345 32.9742C130.107 33.5538 129.757 34.0809 129.314 34.5255C128.872 34.9701 128.346 35.3234 127.766 35.5652C127.186 35.807 126.565 35.9325 125.936 35.9346C124.67 35.9237 123.46 35.4143 122.57 34.5175C121.679 33.6207 121.181 32.4094 121.183 31.1476V31.1476ZM96.9477 31.1476C96.9429 29.8838 97.4415 28.6697 98.3343 27.7721C99.227 26.8745 100.441 26.3669 101.709 26.3606V26.3606C102.337 26.3621 102.959 26.4872 103.538 26.7288C104.118 26.9704 104.643 27.3238 105.086 27.7686C105.528 28.2135 105.877 28.741 106.114 29.3208C106.351 29.9007 106.471 30.5215 106.466 31.1476C106.471 32.4121 105.972 33.6268 105.078 34.5244C104.185 35.4221 102.97 35.9294 101.701 35.9346V35.9346C100.436 35.9218 99.2271 35.4118 98.337 34.5154C97.4468 33.6191 96.9476 32.4088 96.9477 31.1476V31.1476ZM72.7309 31.1476C72.7256 30.5215 72.8448 29.9005 73.0815 29.3205C73.3182 28.7405 73.6677 28.213 74.11 27.7683C74.5523 27.3236 75.0785 26.9706 75.6583 26.7296C76.2381 26.4887 76.8601 26.3645 77.4883 26.3643V26.3643C78.1157 26.3664 78.7365 26.4919 79.3151 26.7336C79.8938 26.9754 80.4189 27.3285 80.8603 27.7729C81.3018 28.2173 81.6509 28.7441 81.8877 29.3232C82.1245 29.9023 82.2443 30.5223 82.2402 31.1476C82.2403 32.4092 81.7401 33.6197 80.8486 34.5154C79.9572 35.411 78.7468 35.9192 77.481 35.9292C76.8542 35.9261 76.234 35.8 75.656 35.5581C75.078 35.3161 74.5535 34.963 74.1124 34.519C73.6713 34.075 73.3223 33.5487 73.0852 32.9703C72.8482 32.3918 72.7278 31.7725 72.7309 31.1476V31.1476ZM48.5033 31.1476C48.498 30.5206 48.6172 29.8988 48.8542 29.3179C49.0911 28.7371 49.441 28.2087 49.8837 27.7632C50.3265 27.3177 50.8533 26.964 51.4338 26.7223C52.0143 26.4807 52.637 26.3559 53.2661 26.3552V26.3552C53.8938 26.3583 54.5148 26.4848 55.0934 26.7275C55.672 26.9701 56.1969 27.3242 56.638 27.7694C57.0791 28.2146 57.4277 28.7421 57.6639 29.3218C57.9001 29.9015 58.0192 30.522 58.0144 31.1476C58.0178 32.4111 57.5186 33.6243 56.6262 34.5216C55.7338 35.4189 54.521 35.927 53.2534 35.9346V35.9346C52.6256 35.932 52.0044 35.8061 51.4254 35.5641C50.8464 35.322 50.321 34.9686 49.8792 34.524C49.4374 34.0794 49.0878 33.5524 48.8505 32.973C48.6131 32.3937 48.4927 31.7734 48.496 31.1476H48.5033ZM24.272 31.1476C24.267 30.5222 24.386 29.9019 24.6222 29.3224C24.8583 28.7429 25.207 28.2156 25.6483 27.7708C26.0895 27.326 26.6145 26.9724 27.1931 26.7304C27.7718 26.4884 28.3928 26.3628 29.0203 26.3606C30.289 26.3664 31.5035 26.8737 32.3972 27.7713C33.2908 28.6688 33.7906 29.8831 33.7868 31.1476V31.1476C33.7859 32.4099 33.2854 33.6209 32.394 34.5176C31.5025 35.4142 30.2922 35.9241 29.0258 35.9364V35.9364C27.7585 35.9269 26.5465 35.4179 25.6545 34.5207C24.7624 33.6234 24.2628 32.4108 24.2648 31.1476H24.272Z" fill="#BC9A6C"/>
</g>
</g>
<g opacity="0.91">
<g opacity="0.91">
<path opacity="0.91" d="M271.333 35.9343C270.07 35.925 268.862 35.4173 267.974 34.5225C267.085 33.6214 266.582 32.4112 266.572 31.1475C266.572 29.8861 267.075 28.6763 267.969 27.7844C268.864 26.8924 270.078 26.3914 271.344 26.3914C272.609 26.3914 273.823 26.8924 274.718 27.7844C275.613 28.6763 276.115 29.8861 276.115 31.1475C276.106 32.4123 275.605 33.6243 274.717 34.5279C273.819 35.4223 272.603 35.9276 271.333 35.9343V35.9343Z" fill="#BC9A6C"/>
</g>
</g>
</g>
<g opacity="0.91">
<g opacity="0.91">
<g opacity="0.91">
<path opacity="0.91" d="M4.79957 61.454C3.53271 61.4554 2.31642 60.9584 1.41514 60.071C0.52418 59.1614 0.0205464 57.9437 0.00952148 56.6725C0.0183999 55.8951 0.218775 55.1318 0.593022 54.4497C0.967268 53.7676 1.50395 53.1876 2.15583 52.7607C2.80771 52.3338 3.55485 52.073 4.33153 52.0014C5.10822 51.9298 5.89066 52.0494 6.61007 52.3498C7.32948 52.6503 7.96379 53.1223 8.45727 53.7243C8.95075 54.3264 9.28826 55.0401 9.44012 55.8027C9.59198 56.5652 9.55351 57.3533 9.32815 58.0976C9.10278 58.8418 8.69739 59.5195 8.14764 60.071C7.25706 60.9523 6.05449 61.449 4.79957 61.454V61.454Z" fill="#BC9A6C"/>
</g>
</g>
<g opacity="0.91">
<g opacity="0.91">
<path opacity="0.91" d="M242.346 56.6655C242.346 55.4027 242.847 54.1912 243.739 53.2944C244.631 52.3977 245.842 51.8881 247.109 51.8767V51.8767C247.737 51.8798 248.358 52.0061 248.937 52.2484C249.516 52.4907 250.041 52.8443 250.483 53.289C250.924 53.7337 251.274 54.2608 251.511 54.8401C251.749 55.4194 251.869 56.0397 251.866 56.6655V56.6655C251.871 57.2922 251.751 57.9136 251.514 58.4941C251.277 59.0745 250.927 59.6025 250.484 60.0475C250.042 60.4926 249.515 60.846 248.935 61.0875C248.355 61.3289 247.732 61.4535 247.103 61.4542V61.4542C245.836 61.4475 244.622 60.9394 243.73 60.0414C242.838 59.1434 242.34 57.9292 242.346 56.6655V56.6655ZM218.117 56.6655C218.116 55.4031 218.616 54.1915 219.507 53.2947C220.399 52.3978 221.609 51.8882 222.876 51.8767V51.8767C224.144 51.8863 225.357 52.3956 226.25 53.2935C227.142 54.1915 227.642 55.405 227.64 56.6691V56.6691C227.645 57.9337 227.146 59.1485 226.252 60.0466C225.359 60.9448 224.145 61.453 222.876 61.4597V61.4597C221.607 61.4525 220.393 60.9435 219.501 60.0445C218.608 59.1455 218.11 57.9301 218.117 56.6655ZM193.891 56.6655C193.887 56.0394 194.008 55.4188 194.245 54.8392C194.483 54.2597 194.833 53.7325 195.275 53.288C195.717 52.8434 196.243 52.4903 196.823 52.2487C197.402 52.0072 198.024 51.882 198.652 51.8803V51.8803C199.918 51.8875 201.13 52.3948 202.022 53.2911C202.914 54.1874 203.413 55.3996 203.409 56.6619V56.6619C203.413 57.2884 203.293 57.9095 203.056 58.4896C202.818 59.0697 202.468 59.5974 202.026 60.0423C201.583 60.4873 201.057 60.8407 200.477 61.0824C199.897 61.3241 199.275 61.4492 198.646 61.4506C198.018 61.4509 197.396 61.3271 196.816 61.0864C196.236 60.8457 195.709 60.493 195.267 60.0484C194.825 59.6038 194.475 59.0763 194.238 58.4963C194.001 57.9163 193.882 57.2953 193.887 56.6691L193.891 56.6655ZM169.667 56.6655C169.662 56.0398 169.782 55.4195 170.019 54.8399C170.255 54.2604 170.604 53.7331 171.046 53.2883C171.487 52.8434 172.012 52.4898 172.591 52.2476C173.17 52.0053 173.791 51.8793 174.419 51.8767V51.8767C175.686 51.8863 176.898 52.3952 177.79 53.2925C178.682 54.1897 179.182 55.4023 179.18 56.6655C179.183 57.2915 179.063 57.9122 178.826 58.4918C178.588 59.0715 178.239 59.5988 177.797 60.0436C177.354 60.4884 176.829 60.8419 176.249 61.084C175.67 61.3261 175.049 61.4519 174.421 61.4542V61.4542C173.792 61.4543 173.17 61.33 172.59 61.0888C172.009 60.8475 171.483 60.494 171.041 60.0486C170.599 59.6033 170.25 59.0749 170.014 58.4942C169.778 57.9135 169.66 57.2919 169.667 56.6655ZM145.412 56.6655C145.409 55.4022 145.907 54.189 146.799 53.2915C147.691 52.394 148.904 51.8853 150.171 51.8767V51.8767C150.799 51.8791 151.421 52.0049 152 52.2469C152.579 52.489 153.105 52.8425 153.547 53.2873C153.989 53.7321 154.339 54.2594 154.576 54.8391C154.814 55.4188 154.934 56.0394 154.93 56.6655V56.6655C154.935 57.2919 154.816 57.9132 154.579 58.4935C154.342 59.0738 153.993 59.6017 153.55 60.0468C153.108 60.4919 152.582 60.8454 152.002 61.0869C151.422 61.3285 150.8 61.4533 150.171 61.4542V61.4542C149.543 61.4533 148.92 61.3285 148.341 61.0869C147.761 60.8454 147.234 60.4919 146.792 60.0468C146.35 59.6017 146 59.0738 145.763 58.4935C145.526 57.9132 145.407 57.2919 145.412 56.6655V56.6655ZM121.183 56.6655C121.18 55.4033 121.678 54.1912 122.569 53.294C123.459 52.3967 124.67 51.8872 125.936 51.8767C126.565 51.8793 127.187 52.0054 127.767 52.2477C128.346 52.49 128.872 52.8437 129.315 53.2888C129.757 53.7339 130.108 54.2615 130.345 54.8415C130.583 55.4215 130.704 56.0425 130.701 56.6691C130.705 57.2952 130.586 57.9161 130.349 58.496C130.112 59.0759 129.762 59.6034 129.32 60.0481C128.877 60.4928 128.351 60.8459 127.771 61.0873C127.192 61.3286 126.57 61.4533 125.942 61.4542V61.4542C125.314 61.4519 124.692 61.3261 124.113 61.084C123.533 60.8419 123.008 60.4884 122.566 60.0436C122.124 59.5988 121.774 59.0715 121.537 58.4918C121.299 57.9122 121.179 57.2915 121.183 56.6655ZM96.9476 56.6655C96.9466 55.4026 97.4465 54.1905 98.3383 53.2935C99.2302 52.3965 100.442 51.8872 101.709 51.8767V51.8767C102.337 51.8795 102.958 52.0058 103.538 52.2483C104.117 52.4908 104.642 52.8447 105.084 53.2898C105.526 53.7349 105.876 54.2625 106.113 54.8423C106.35 55.4222 106.47 56.0429 106.466 56.6691V56.6691C106.471 57.2959 106.352 57.9176 106.116 58.4984C105.879 59.0791 105.529 59.6074 105.087 60.0528C104.644 60.4981 104.117 60.8517 103.537 61.0932C102.957 61.3346 102.334 61.4592 101.705 61.4597V61.4597C100.437 61.4496 99.225 60.9396 98.3335 60.0412C97.442 59.1428 96.9437 57.9291 96.9476 56.6655V56.6655ZM72.7236 56.6655C72.7235 55.4035 73.2232 54.1925 74.1141 53.2958C75.0049 52.3991 76.2149 51.8891 77.481 51.8767C78.7492 51.8863 79.9621 52.3956 80.8549 53.2935C81.7476 54.1915 82.2475 55.405 82.2456 56.6691C82.2495 57.9324 81.7511 59.1457 80.8594 60.0435C79.9678 60.9414 78.7556 61.4506 77.4882 61.4597V61.4597C76.2196 61.4525 75.0057 60.9434 74.1136 60.0444C73.2214 59.1453 72.7241 57.9299 72.7308 56.6655H72.7236ZM48.4959 56.6655C48.4926 56.0396 48.613 55.4192 48.8503 54.8398C49.0877 54.2604 49.4372 53.7332 49.879 53.2885C50.3208 52.8438 50.8462 52.4902 51.4252 52.2479C52.0042 52.0057 52.6254 51.8796 53.2533 51.8767V51.8767C54.5203 51.8877 55.7317 52.397 56.6237 53.2939C57.5157 54.1908 58.0162 55.4026 58.0161 56.6655V56.6655C58.0209 57.9303 57.5222 59.1454 56.6293 60.0442C55.7364 60.9429 54.5223 61.452 53.2533 61.4597V61.4597C52.6246 61.4582 52.0022 61.3329 51.4222 61.0908C50.8423 60.8487 50.316 60.4947 49.8739 60.0491C49.4317 59.6035 49.0823 59.0752 48.8459 58.4945C48.6094 57.9138 48.4904 57.2922 48.4959 56.6655V56.6655ZM24.261 56.6655C24.2581 55.402 24.7574 54.1889 25.6497 53.2914C26.5419 52.394 27.7545 51.8853 29.022 51.8767C30.2898 51.8863 31.5022 52.3958 32.394 53.2939C33.2859 54.1919 33.7846 55.4055 33.7812 56.6691V56.6691C33.7846 57.2952 33.6641 57.9158 33.4267 58.4954C33.1893 59.0751 32.8396 59.6024 32.3976 60.0473C31.9557 60.4922 31.43 60.846 30.8508 61.0883C30.2716 61.3306 29.6502 61.4568 29.022 61.4597V61.4597C28.393 61.4585 27.7705 61.3333 27.1902 61.0914C26.6099 60.8494 26.0833 60.4955 25.6408 60.0499C25.1983 59.6043 24.8486 59.0759 24.6118 58.495C24.375 57.9142 24.2558 57.2924 24.261 56.6655V56.6655Z" fill="#BC9A6C"/>
</g>
</g>
<g opacity="0.91">
<g opacity="0.91">
<path opacity="0.91" d="M271.333 61.4598C270.075 61.4523 268.87 60.9539 267.977 60.0714C267.088 59.1582 266.585 57.9397 266.572 56.6674C266.58 55.7296 266.867 54.8153 267.396 54.0397C267.925 53.2641 268.673 52.662 269.544 52.3091C270.416 51.9562 271.373 51.8684 272.295 52.0567C273.217 52.2451 274.062 52.7011 274.724 53.3674C275.386 54.0337 275.836 54.8804 276.016 55.8009C276.196 56.7214 276.099 57.6744 275.737 58.5399C275.375 59.4055 274.763 60.1448 273.98 60.6647C273.197 61.1846 272.277 61.4619 271.336 61.4616L271.333 61.4598Z" fill="#BC9A6C"/>
</g>
</g>
</g>
<g opacity="0.91">
<g opacity="0.91">
<g opacity="0.91">
<path opacity="0.91" d="M4.79963 87.8119C3.5332 87.8041 2.31943 87.3055 1.41518 86.4217C0.529642 85.5275 0.0332962 84.3215 0.0336916 83.0651C0.0340871 81.8087 0.531238 80.603 1.41734 79.7094C2.30344 78.8157 3.50715 78.3061 4.76764 78.2909C6.02813 78.2757 7.24385 78.7562 8.15137 79.6282C9.03735 80.5376 9.5325 81.7556 9.53158 83.0232C9.53327 84.285 9.03763 85.4971 8.15137 86.3982C7.71383 86.8425 7.19241 87.1962 6.61717 87.4388C6.04193 87.6814 5.42424 87.8082 4.79963 87.8119V87.8119Z" fill="#BC9A6C"/>
</g>
</g>
<g opacity="0.91">
<g opacity="0.91">
<path opacity="0.91" d="M242.346 83.0301C242.341 81.7659 242.84 80.5516 243.733 79.654C244.626 78.7564 245.84 78.249 247.109 78.2432C247.737 78.2444 248.359 78.3693 248.939 78.6108C249.518 78.8524 250.044 79.2057 250.487 79.6505C250.929 80.0954 251.279 80.6229 251.516 81.2029C251.753 81.7829 251.872 82.4039 251.868 83.0301V83.0301C251.874 84.2941 251.375 85.5086 250.483 86.4066C249.591 87.3046 248.377 87.8125 247.109 87.8188V87.8188C245.841 87.8087 244.629 87.2997 243.737 86.4026C242.845 85.5055 242.345 84.2932 242.346 83.0301V83.0301ZM218.118 83.0301C218.113 82.4041 218.233 81.7834 218.47 81.2036C218.707 80.6238 219.056 80.0965 219.498 79.6519C219.941 79.2073 220.467 78.8543 221.046 78.6132C221.626 78.372 222.248 78.2475 222.876 78.2468V78.2468C224.144 78.2516 225.358 78.7582 226.252 79.6552C227.145 80.5522 227.645 81.7661 227.64 83.0301V83.0301C227.642 84.2933 227.142 85.5059 226.249 86.4024C225.356 87.2988 224.143 87.8062 222.876 87.8133V87.8133C222.247 87.8112 221.625 87.6854 221.046 87.4432C220.466 87.201 219.94 86.8471 219.498 86.4019C219.056 85.9566 218.707 85.4288 218.47 84.8486C218.233 84.2685 218.114 83.6474 218.118 83.021V83.0301ZM193.887 83.0301C193.882 82.4038 194.002 81.7827 194.239 81.2026C194.476 80.6225 194.825 80.0949 195.268 79.65C195.71 79.2051 196.236 78.8518 196.816 78.6104C197.396 78.3689 198.018 78.2441 198.646 78.2432V78.2432C199.274 78.2451 199.896 78.3704 200.475 78.6119C201.054 78.8534 201.58 79.2064 202.023 79.6506C202.465 80.0949 202.815 80.6217 203.053 81.201C203.291 81.7802 203.412 82.4006 203.409 83.0265V83.0265C203.413 84.2905 202.914 85.5045 202.021 86.402C201.128 87.2995 199.914 87.8071 198.646 87.8133C198.019 87.8107 197.398 87.6849 196.819 87.4432C196.24 87.2014 195.715 86.8483 195.273 86.4041C194.831 85.96 194.481 85.4334 194.243 84.8545C194.005 84.2755 193.884 83.6556 193.887 83.0301V83.0301ZM169.659 83.0301C169.655 82.4038 169.775 81.7828 170.012 81.2028C170.249 80.6228 170.599 80.0952 171.042 79.6504C171.484 79.2056 172.01 78.8523 172.59 78.6108C173.17 78.3693 173.792 78.2444 174.42 78.2432V78.2432C175.048 78.2456 175.67 78.3713 176.249 78.6132C176.828 78.8551 177.354 79.2085 177.796 79.6531C178.238 80.0976 178.588 80.6247 178.826 81.2042C179.064 81.7836 179.184 82.4041 179.181 83.0301C179.182 84.2928 178.682 85.5045 177.79 86.4015C176.898 87.2984 175.687 87.8078 174.42 87.8188V87.8188C173.152 87.8116 171.939 87.3034 171.046 86.4056C170.154 85.5079 169.655 84.2939 169.659 83.0301ZM145.408 83.0301C145.405 82.4043 145.525 81.7841 145.763 81.2047C146 80.6254 146.349 80.0984 146.791 79.6538C147.233 79.2092 147.759 78.8558 148.338 78.6138C148.916 78.3717 149.538 78.2458 150.165 78.2432C150.795 78.2432 151.419 78.3672 152.001 78.6079C152.582 78.8487 153.111 79.2016 153.555 79.6464C154 80.0911 154.352 80.6189 154.591 81.1996C154.83 81.7803 154.952 82.4023 154.95 83.0301C154.95 84.2967 154.447 85.5117 153.55 86.4092C152.653 87.3067 151.436 87.8135 150.165 87.8188V87.8188C148.899 87.8068 147.689 87.297 146.798 86.4002C145.907 85.5034 145.408 84.2922 145.408 83.0301V83.0301ZM121.182 83.0301C121.179 82.4044 121.299 81.7842 121.536 81.205C121.774 80.6258 122.123 80.0989 122.565 79.6546C123.007 79.2102 123.533 78.8572 124.112 78.6156C124.691 78.374 125.312 78.2487 125.94 78.2468V78.2468C126.568 78.2475 127.19 78.3721 127.77 78.6134C128.35 78.8548 128.877 79.2081 129.319 79.653C129.762 80.0979 130.112 80.6256 130.349 81.2058C130.586 81.786 130.705 82.4072 130.701 83.0337V83.0337C130.705 84.2974 130.207 85.5114 129.315 86.4091C128.423 87.3069 127.209 87.8152 125.941 87.8224V87.8224C124.672 87.8128 123.458 87.3021 122.566 86.402C121.674 85.502 121.176 84.2862 121.182 83.021V83.0301ZM96.9547 83.0301C96.9511 82.4046 97.0712 81.7845 97.3082 81.2053C97.5453 80.6261 97.8945 80.0991 98.336 79.6546C98.7775 79.21 99.3026 78.8565 99.8812 78.6143C100.46 78.3722 101.081 78.2461 101.708 78.2432V78.2432C102.337 78.2449 102.958 78.3701 103.537 78.6118C104.117 78.8536 104.643 79.2069 105.085 79.6517C105.527 80.0965 105.876 80.6239 106.113 81.2036C106.35 81.7834 106.47 82.4041 106.466 83.0301V83.0301C106.469 84.2928 105.97 85.5054 105.078 86.402C104.186 87.2987 102.974 87.8062 101.707 87.8133C100.442 87.801 99.2334 87.2915 98.3436 86.3958C97.4537 85.5001 96.9546 84.2906 96.9547 83.0301ZM72.7215 83.0301C72.7168 82.4035 72.8363 81.7822 73.0731 81.2018C73.31 80.6214 73.6596 80.0934 74.1019 79.6481C74.5441 79.2028 75.0703 78.8489 75.6501 78.6069C76.23 78.3649 76.8521 78.2394 77.4808 78.2378V78.2378C78.7493 78.2445 79.9633 78.7524 80.8565 79.6502C81.7498 80.5479 82.2492 81.7621 82.2454 83.0265V83.0265C82.2473 84.2906 81.7474 85.5041 80.8547 86.402C79.9619 87.2999 78.749 87.8092 77.4808 87.8188V87.8188C76.8528 87.8159 76.2315 87.6898 75.6524 87.4476C75.0733 87.2054 74.5478 86.8518 74.1058 86.4071C73.6638 85.9624 73.3141 85.4353 73.0766 84.8558C72.8391 84.2764 72.7184 83.656 72.7215 83.0301V83.0301ZM48.4957 83.0301C48.491 82.4041 48.6105 81.7834 48.8473 81.2036C49.0842 80.6238 49.4338 80.0965 49.876 79.6519C50.3181 79.2073 50.8441 78.8543 51.4237 78.6132C52.0033 78.372 52.6251 78.2475 53.2531 78.2468V78.2468C53.8812 78.2492 54.5026 78.3749 55.0819 78.6168C55.6612 78.8588 56.187 79.2121 56.6291 79.6567C57.0713 80.1013 57.4212 80.6283 57.6589 81.2078C57.8965 81.7872 58.0173 82.4077 58.0142 83.0337C58.0166 84.2955 57.5177 85.507 56.6266 86.4033C55.7355 87.2996 54.5246 87.8079 53.2586 87.817V87.817C52.6296 87.8148 52.0072 87.689 51.4271 87.4466C50.8471 87.2042 50.3207 86.8501 49.8782 86.4046C49.4357 85.959 49.0858 85.4308 48.8486 84.8501C48.6114 84.2695 48.4914 83.6479 48.4957 83.021V83.0301ZM24.2663 83.0301C24.261 82.4037 24.3802 81.7824 24.617 81.2021C24.8537 80.6218 25.2034 80.0939 25.6458 79.6489C26.0882 79.2039 26.6146 78.8506 27.1947 78.6094C27.7747 78.3681 28.397 78.2437 29.0255 78.2432V78.2432C29.6531 78.2453 30.2741 78.3708 30.8529 78.6125C31.4318 78.8542 31.9571 79.2073 32.3988 79.6516C32.8406 80.0959 33.1901 80.6227 33.4272 81.2018C33.6644 81.7809 33.7846 82.401 33.781 83.0265V83.0265C33.7859 84.29 33.2874 85.5038 32.3951 86.4013C31.5028 87.2988 30.2896 87.8066 29.0219 87.8133C28.3945 87.8105 27.7738 87.6845 27.1953 87.4426C26.6168 87.2007 26.0917 86.8476 25.6501 86.4034C25.2086 85.9592 24.8591 85.4327 24.6216 84.8539C24.3842 84.2751 24.2634 83.6554 24.2663 83.0301V83.0301Z" fill="#BC9A6C"/>
</g>
</g>
<g opacity="0.91">
<g opacity="0.91">
<path opacity="0.91" d="M271.333 87.8138C270.073 87.8071 268.866 87.3079 267.972 86.4236C267.088 85.5096 266.586 84.2945 266.568 83.025C266.567 82.0844 266.845 81.1645 267.368 80.3812C267.89 79.5978 268.633 78.9861 269.504 78.6231C270.374 78.2601 271.333 78.162 272.26 78.3412C273.186 78.5203 274.039 78.9688 274.71 79.63C275.598 80.5399 276.1 81.7558 276.112 83.025C276.104 84.2885 275.602 85.4993 274.714 86.4001C274.272 86.8466 273.745 87.2014 273.165 87.444C272.585 87.6867 271.962 87.8123 271.333 87.8138V87.8138Z" fill="#BC9A6C"/>
</g>
</g>
</g>
<g opacity="0.91">
<g opacity="0.91">
<g opacity="0.91">
<path opacity="0.91" d="M4.77439 111.725C3.51548 111.722 2.30844 111.224 1.41536 110.34C0.533187 109.427 0.0382088 108.209 0.0333252 106.942C0.0419251 106.165 0.241918 105.403 0.615719 104.721C0.98952 104.04 1.52568 103.461 2.17692 103.035C2.82817 102.608 3.57455 102.348 4.35036 102.277C5.12617 102.206 5.90762 102.327 6.62586 102.627C7.34409 102.928 7.97707 103.4 8.46913 104.002C8.96118 104.604 9.29719 105.318 9.44755 106.08C9.59791 106.842 9.55801 107.629 9.33137 108.372C9.10473 109.115 8.6983 109.791 8.14787 110.34C7.25034 111.227 6.03802 111.724 4.77439 111.725V111.725Z" fill="#BC9A6C"/>
</g>
</g>
<g opacity="0.91">
<g opacity="0.91">
<path opacity="0.91" d="M242.346 106.936C242.345 105.674 242.846 104.462 243.738 103.567C244.63 102.671 245.842 102.163 247.109 102.155V102.155C248.376 102.16 249.589 102.667 250.481 103.563C251.374 104.46 251.873 105.673 251.868 106.936C251.873 107.563 251.754 108.184 251.518 108.765C251.281 109.345 250.931 109.873 250.489 110.318C250.046 110.764 249.52 111.117 248.94 111.358C248.36 111.6 247.737 111.724 247.109 111.725V111.725C246.48 111.723 245.858 111.598 245.278 111.357C244.698 111.115 244.172 110.761 243.729 110.317C243.287 109.872 242.937 109.344 242.699 108.764C242.462 108.184 242.342 107.563 242.346 106.936ZM218.118 106.936C218.112 105.673 218.61 104.459 219.502 103.561C220.394 102.663 221.608 102.155 222.876 102.149C224.144 102.155 225.358 102.663 226.251 103.56C227.144 104.458 227.644 105.672 227.64 106.936V106.936C227.645 107.563 227.525 108.184 227.287 108.765C227.05 109.345 226.7 109.873 226.257 110.318C225.814 110.763 225.288 111.117 224.707 111.358C224.127 111.599 223.504 111.724 222.876 111.725V111.725C222.247 111.724 221.625 111.599 221.045 111.357C220.465 111.116 219.939 110.762 219.497 110.317C219.055 109.872 218.705 109.344 218.469 108.764C218.232 108.184 218.113 107.562 218.118 106.936V106.936ZM193.885 106.936C193.88 105.672 194.378 104.458 195.271 103.56C196.164 102.662 197.378 102.155 198.646 102.149V102.149C199.915 102.157 201.128 102.666 202.021 103.565C202.914 104.463 203.413 105.677 203.409 106.942V106.942C203.412 107.567 203.291 108.188 203.053 108.767C202.815 109.346 202.465 109.873 202.022 110.317C201.58 110.762 201.054 111.115 200.475 111.356C199.895 111.598 199.274 111.723 198.646 111.725V111.725C198.018 111.724 197.396 111.599 196.816 111.357C196.236 111.115 195.71 110.762 195.267 110.317C194.825 109.872 194.475 109.344 194.238 108.764C194.002 108.184 193.882 107.563 193.887 106.936H193.885ZM169.659 106.936C169.656 106.31 169.777 105.69 170.015 105.111C170.252 104.532 170.602 104.005 171.044 103.56C171.486 103.116 172.011 102.762 172.59 102.52C173.169 102.278 173.791 102.152 174.418 102.149C175.687 102.158 176.9 102.668 177.792 103.566C178.685 104.464 179.184 105.677 179.181 106.942C179.185 108.204 178.687 109.417 177.796 110.315C176.904 111.212 175.693 111.721 174.426 111.73V111.73C173.796 111.73 173.173 111.605 172.592 111.363C172.012 111.121 171.484 110.767 171.041 110.322C170.598 109.876 170.248 109.348 170.011 108.767C169.774 108.186 169.654 107.563 169.659 106.936V106.936ZM145.408 106.936C145.406 105.669 145.908 104.453 146.805 103.555C147.701 102.657 148.918 102.149 150.189 102.144V102.144C151.454 102.155 152.664 102.666 153.552 103.564C154.441 104.462 154.936 105.675 154.93 106.936C154.935 107.561 154.816 108.181 154.58 108.761C154.344 109.34 153.996 109.867 153.555 110.312C153.114 110.757 152.59 111.111 152.012 111.353C151.433 111.596 150.813 111.722 150.185 111.725V111.725C149.556 111.724 148.934 111.599 148.353 111.358C147.773 111.117 147.246 110.764 146.802 110.32C146.359 109.876 146.007 109.349 145.768 108.769C145.529 108.189 145.406 107.568 145.408 106.942V106.936ZM121.177 106.936C121.176 105.672 121.676 104.459 122.569 103.562C123.461 102.664 124.673 102.154 125.941 102.144V102.144C127.209 102.153 128.421 102.661 129.313 103.558C130.206 104.455 130.706 105.668 130.704 106.931V106.931C130.708 107.558 130.588 108.179 130.35 108.759C130.113 109.34 129.763 109.868 129.32 110.313C128.877 110.758 128.351 111.112 127.771 111.355C127.191 111.597 126.568 111.723 125.94 111.725V111.725C124.673 111.717 123.46 111.209 122.568 110.313C121.675 109.416 121.175 108.204 121.177 106.942V106.936ZM96.9546 106.936C96.9512 105.673 97.4501 104.46 98.3421 103.563C99.2341 102.666 100.447 102.157 101.714 102.149C102.341 102.152 102.962 102.279 103.54 102.521C104.119 102.763 104.644 103.117 105.085 103.561C105.526 104.006 105.875 104.533 106.112 105.112C106.349 105.691 106.469 106.311 106.466 106.936V106.936C106.471 107.563 106.351 108.185 106.114 108.765C105.877 109.346 105.527 109.874 105.084 110.319C104.641 110.764 104.114 111.118 103.533 111.359C102.953 111.6 102.33 111.725 101.701 111.725V111.725C100.435 111.718 99.2242 111.21 98.3341 110.313C97.444 109.416 96.9478 108.203 96.9546 106.942V106.936ZM72.7233 106.936C72.7184 105.673 73.2167 104.459 74.1086 103.562C75.0006 102.664 76.2133 102.156 77.4807 102.149V102.149C78.7486 102.16 79.961 102.669 80.8535 103.567C81.746 104.465 82.2463 105.678 82.2453 106.942V106.942C82.2484 107.567 82.1277 108.187 81.8903 108.766C81.6528 109.345 81.3032 109.872 80.8614 110.316C80.4195 110.76 79.8942 111.113 79.3153 111.355C78.7365 111.597 78.1155 111.722 77.4879 111.725V111.725C76.8592 111.725 76.2367 111.601 75.6564 111.359C75.0761 111.118 74.5495 110.765 74.1071 110.319C73.6648 109.874 73.3154 109.346 73.0791 108.765C72.8428 108.184 72.7243 107.563 72.7305 106.936H72.7233ZM48.4956 106.936C48.4925 106.311 48.6132 105.691 48.8507 105.112C49.0881 104.533 49.4379 104.006 49.8797 103.562C50.3216 103.118 50.8469 102.765 51.4258 102.524C52.0046 102.282 52.6255 102.157 53.253 102.155C54.5205 102.163 55.733 102.671 56.6253 103.568C57.5176 104.465 58.017 105.678 58.0141 106.942V106.942C58.0176 107.567 57.8972 108.188 57.6596 108.767C57.4221 109.347 57.0722 109.874 56.6299 110.318C56.1875 110.763 55.6616 111.116 55.0821 111.357C54.5026 111.598 53.8811 111.723 53.253 111.725V111.725C52.6245 111.724 52.0023 111.599 51.4223 111.358C50.8424 111.116 50.3162 110.763 49.8739 110.318C49.4317 109.873 49.0822 109.345 48.8456 108.764C48.6091 108.184 48.4901 107.563 48.4956 106.936V106.936ZM24.2662 106.936C24.2584 105.676 24.7523 104.463 25.6396 103.565C26.5269 102.667 27.7353 102.156 29 102.144V102.144C30.2705 102.149 31.4872 102.655 32.3837 103.552C33.2802 104.45 33.7833 105.664 33.7828 106.931V106.931C33.7854 107.559 33.6636 108.181 33.4243 108.762C33.185 109.343 32.833 109.871 32.3885 110.316C31.9439 110.761 31.4156 111.114 30.8338 111.354C30.252 111.595 29.6282 111.719 28.9982 111.719V111.719C28.3723 111.717 27.7531 111.591 27.1762 111.349C26.5992 111.107 26.0758 110.754 25.6361 110.31C25.1965 109.867 24.8491 109.34 24.614 108.762C24.3789 108.184 24.2607 107.565 24.2662 106.942V106.936Z" fill="#BC9A6C"/>
</g>
</g>
<g opacity="0.91">
<g opacity="0.91">
<path opacity="0.91" d="M271.356 111.725C270.09 111.727 268.875 111.229 267.977 110.34C267.088 109.429 266.585 108.212 266.573 106.942C266.573 105.683 267.075 104.476 267.968 103.586C268.861 102.696 270.072 102.196 271.334 102.196C272.597 102.196 273.808 102.696 274.701 103.586C275.594 104.476 276.095 105.683 276.095 106.942C276.094 108.212 275.598 109.432 274.713 110.346C273.819 111.227 272.613 111.722 271.356 111.725Z" fill="#BC9A6C"/>
</g>
</g>
</g>
<g opacity="0.91">
<g opacity="0.91">
<g opacity="0.91">
<path opacity="0.91" d="M4.77237 138.084C4.14634 138.084 3.52663 137.959 2.94996 137.716C2.37328 137.473 1.85135 137.117 1.41515 136.67C0.527833 135.768 0.024261 134.56 0.00952148 133.297C0.0162413 132.03 0.523236 130.818 1.42063 129.922C2.32511 129.059 3.52771 128.575 4.77979 128.571C6.03187 128.567 7.23763 129.043 8.1477 129.9C8.59437 130.344 8.94876 130.872 9.19056 131.452C9.43235 132.033 9.55681 132.656 9.55681 133.285C9.55681 133.914 9.43235 134.536 9.19056 135.117C8.94876 135.698 8.59437 136.226 8.1477 136.67C7.70688 137.116 7.1816 137.471 6.6022 137.714C6.02281 137.957 5.40084 138.082 4.77237 138.084V138.084Z" fill="#BC9A6C"/>
</g>
</g>
<g opacity="0.91">
<g opacity="0.91">
<path opacity="0.91" d="M242.346 133.297C242.343 132.67 242.464 132.05 242.701 131.47C242.939 130.89 243.289 130.363 243.731 129.918C244.174 129.473 244.7 129.12 245.279 128.878C245.859 128.636 246.48 128.51 247.109 128.508V128.508C247.737 128.508 248.36 128.633 248.94 128.875C249.52 129.116 250.046 129.47 250.488 129.915C250.931 130.36 251.281 130.888 251.517 131.468C251.754 132.049 251.873 132.67 251.868 133.297C251.872 134.56 251.373 135.773 250.481 136.67C249.589 137.568 248.376 138.076 247.109 138.084V138.084C245.842 138.073 244.631 137.564 243.738 136.668C242.846 135.771 242.346 134.559 242.346 133.297V133.297ZM218.118 133.297C218.113 132.67 218.233 132.049 218.47 131.469C218.707 130.889 219.056 130.361 219.498 129.916C219.94 129.471 220.466 129.118 221.046 128.876C221.625 128.634 222.247 128.509 222.876 128.508C223.504 128.51 224.126 128.635 224.706 128.877C225.286 129.119 225.812 129.472 226.255 129.917C226.697 130.362 227.047 130.889 227.285 131.469C227.523 132.049 227.644 132.67 227.64 133.297V133.297C227.641 134.559 227.141 135.771 226.248 136.667C225.355 137.563 224.143 138.071 222.876 138.078C222.248 138.077 221.627 137.951 221.048 137.71C220.469 137.469 219.943 137.116 219.501 136.672C219.059 136.227 218.71 135.701 218.472 135.121C218.235 134.542 218.115 133.922 218.118 133.297V133.297ZM193.887 133.297C193.882 132.67 194.001 132.049 194.238 131.468C194.474 130.888 194.824 130.36 195.266 129.915C195.709 129.47 196.235 129.116 196.815 128.875C197.395 128.633 198.018 128.508 198.646 128.508C199.274 128.51 199.896 128.636 200.475 128.878C201.055 129.12 201.581 129.474 202.023 129.919C202.465 130.363 202.815 130.891 203.053 131.47C203.291 132.05 203.412 132.67 203.409 133.297V133.297C203.412 134.56 202.913 135.773 202.02 136.669C201.127 137.566 199.914 138.072 198.646 138.078C198.019 138.076 197.398 137.951 196.819 137.709C196.24 137.468 195.714 137.115 195.272 136.671C194.83 136.227 194.48 135.7 194.243 135.121C194.005 134.542 193.884 133.922 193.887 133.297V133.297ZM169.659 133.297C169.655 132.67 169.774 132.049 170.011 131.469C170.248 130.889 170.598 130.361 171.04 129.916C171.482 129.471 172.008 129.117 172.588 128.876C173.168 128.634 173.79 128.509 174.419 128.508V128.508C175.047 128.51 175.669 128.636 176.248 128.877C176.828 129.119 177.354 129.473 177.796 129.918C178.238 130.363 178.588 130.89 178.825 131.47C179.063 132.05 179.183 132.67 179.18 133.297V133.297C179.18 134.559 178.68 135.771 177.788 136.667C176.896 137.564 175.685 138.073 174.419 138.084C173.151 138.076 171.938 137.568 171.046 136.671C170.154 135.774 169.655 134.56 169.659 133.297V133.297ZM145.408 133.297C145.405 132.671 145.525 132.05 145.762 131.471C145.999 130.892 146.348 130.364 146.79 129.92C147.232 129.475 147.757 129.121 148.336 128.879C148.915 128.637 149.536 128.511 150.164 128.508V128.508C150.794 128.508 151.418 128.632 152 128.873C152.582 129.114 153.11 129.467 153.555 129.911C153.999 130.356 154.352 130.884 154.591 131.465C154.83 132.046 154.952 132.669 154.95 133.297V133.297C154.95 134.562 154.447 135.776 153.552 136.673C152.656 137.57 151.441 138.077 150.171 138.084V138.084C148.904 138.075 147.691 137.567 146.799 136.67C145.906 135.773 145.406 134.56 145.408 133.297V133.297ZM121.182 133.297C121.179 132.67 121.299 132.05 121.537 131.47C121.774 130.89 122.124 130.363 122.566 129.918C123.008 129.473 123.533 129.119 124.113 128.876C124.692 128.634 125.313 128.507 125.942 128.504V128.504C126.57 128.505 127.192 128.63 127.772 128.872C128.352 129.114 128.878 129.467 129.32 129.912C129.763 130.357 130.112 130.885 130.349 131.465C130.586 132.045 130.705 132.667 130.701 133.293C130.705 134.557 130.206 135.772 129.312 136.669C128.419 137.567 127.205 138.074 125.936 138.08V138.08C124.671 138.069 123.462 137.561 122.572 136.665C121.682 135.77 121.182 134.561 121.182 133.3V133.297ZM96.9547 133.297C96.9514 132.671 97.0716 132.051 97.3087 131.472C97.5458 130.893 97.895 130.366 98.3365 129.921C98.7779 129.476 99.3029 129.122 99.8815 128.88C100.46 128.638 101.081 128.511 101.708 128.508V128.508C102.337 128.509 102.958 128.635 103.538 128.877C104.117 129.118 104.643 129.472 105.085 129.917C105.527 130.362 105.877 130.89 106.114 131.469C106.351 132.049 106.47 132.67 106.466 133.297V133.297C106.471 134.56 105.972 135.774 105.08 136.671C104.188 137.569 102.974 138.077 101.707 138.084C100.441 138.074 99.2301 137.564 98.3397 136.667C97.4492 135.77 96.9513 134.558 96.9547 133.297ZM72.7234 133.297C72.7184 132.67 72.8379 132.048 73.0751 131.467C73.3123 130.887 73.6624 130.358 74.1053 129.913C74.5482 129.468 75.0752 129.115 75.6558 128.874C76.2363 128.632 76.8591 128.508 77.4881 128.508C78.1159 128.511 78.737 128.637 79.3159 128.879C79.8947 129.122 80.4201 129.475 80.8618 129.92C81.3036 130.365 81.6531 130.892 81.8905 131.471C82.1279 132.051 82.2485 132.671 82.2454 133.297V133.297C82.2464 134.56 81.746 135.772 80.8533 136.669C79.9606 137.566 78.7483 138.075 77.4808 138.084V138.084C76.2147 138.075 75.0038 137.566 74.1134 136.668C73.2231 135.771 72.7258 134.559 72.7307 133.297H72.7234ZM48.4958 133.297C48.4895 132.669 48.6082 132.047 48.8448 131.466C49.0814 130.885 49.4314 130.357 49.8743 129.911C50.3173 129.466 50.8445 129.113 51.4254 128.872C52.0063 128.631 52.6294 128.507 53.2586 128.508C54.5263 128.514 55.7394 129.023 56.6312 129.921C57.523 130.819 58.0205 132.033 58.0142 133.297C58.0161 134.56 57.5165 135.772 56.6244 136.669C55.7323 137.566 54.5203 138.075 53.2532 138.084V138.084C52.6254 138.081 52.0042 137.955 51.4252 137.713C50.8462 137.471 50.3208 137.118 49.879 136.673C49.4371 136.228 49.0876 135.701 48.8502 135.122C48.6129 134.543 48.4924 133.922 48.4958 133.297ZM24.2609 133.297C24.2561 132.67 24.3757 132.049 24.6127 131.468C24.8497 130.888 25.1996 130.36 25.642 129.915C26.0845 129.47 26.6109 129.117 27.191 128.875C27.771 128.634 28.3933 128.509 29.0219 128.508V128.508C29.65 128.51 30.2715 128.636 30.8508 128.878C31.4301 129.12 31.9559 129.474 32.3979 129.918C32.84 130.363 33.1896 130.891 33.427 131.47C33.6643 132.05 33.7847 132.67 33.7811 133.297C33.783 134.559 33.2836 135.771 32.3919 136.668C31.5002 137.565 30.2887 138.074 29.0219 138.084V138.084C27.7542 138.076 26.5411 137.568 25.6486 136.671C24.7561 135.774 24.257 134.56 24.2609 133.297Z" fill="#BC9A6C"/>
</g>
</g>
<g opacity="0.91">
<g opacity="0.91">
<path opacity="0.91" d="M271.333 138.083C270.706 138.082 270.087 137.956 269.51 137.713C268.934 137.471 268.411 137.116 267.974 136.67C267.312 136.007 266.862 135.163 266.681 134.245C266.5 133.328 266.595 132.377 266.956 131.513C267.316 130.65 267.925 129.912 268.705 129.393C269.486 128.874 270.403 128.597 271.342 128.597C272.28 128.597 273.197 128.874 273.978 129.393C274.759 129.912 275.367 130.65 275.728 131.513C276.088 132.377 276.184 133.328 276.002 134.245C275.821 135.163 275.371 136.007 274.71 136.67C274.27 137.118 273.744 137.474 273.164 137.717C272.584 137.96 271.962 138.084 271.333 138.083V138.083Z" fill="#BC9A6C"/>
</g>
</g>
</g>
<g opacity="0.91">
<g opacity="0.91">
<g opacity="0.91">
<path opacity="0.91" d="M4.79755 163.631C3.84865 163.623 2.92303 163.337 2.13675 162.808C1.35047 162.278 0.73852 161.529 0.377664 160.654C0.0168075 159.779 -0.0769003 158.818 0.108274 157.89C0.293448 156.963 0.749266 156.11 1.41858 155.44C2.33017 154.585 3.53441 154.11 4.78576 154.11C6.0371 154.11 7.24134 154.585 8.15293 155.44C8.82005 156.109 9.27466 156.959 9.46014 157.885C9.64562 158.81 9.55371 159.769 9.1959 160.642C8.83808 161.516 8.23022 162.265 7.44805 162.797C6.66588 163.328 5.74406 163.618 4.79755 163.631V163.631Z" fill="#BC9A6C"/>
</g>
</g>
<g opacity="0.91">
<g opacity="0.91">
<path opacity="0.91" d="M242.345 158.838C242.34 157.574 242.839 156.359 243.732 155.461C244.625 154.563 245.84 154.055 247.108 154.049C247.737 154.05 248.36 154.175 248.94 154.417C249.52 154.659 250.047 155.013 250.489 155.459C250.932 155.904 251.281 156.433 251.518 157.014C251.754 157.595 251.873 158.217 251.867 158.843V158.843C251.87 160.106 251.371 161.319 250.479 162.216C249.587 163.113 248.375 163.622 247.108 163.63V163.63C245.841 163.619 244.629 163.109 243.737 162.211C242.845 161.314 242.345 160.101 242.345 158.838V158.838ZM218.118 158.838C218.112 157.575 218.61 156.361 219.502 155.463C220.394 154.565 221.607 154.056 222.875 154.049C223.504 154.051 224.125 154.177 224.705 154.419C225.285 154.661 225.811 155.014 226.254 155.459C226.696 155.904 227.046 156.431 227.284 157.011C227.522 157.591 227.643 158.212 227.64 158.838V158.838C227.64 160.101 227.14 161.313 226.247 162.21C225.354 163.107 224.142 163.615 222.875 163.625V163.625C221.608 163.616 220.396 163.108 219.505 162.211C218.613 161.314 218.114 160.101 218.118 158.838V158.838ZM193.886 158.838C193.881 158.211 194 157.59 194.237 157.009C194.473 156.429 194.823 155.901 195.265 155.456C195.708 155.01 196.234 154.657 196.814 154.416C197.395 154.174 198.017 154.05 198.646 154.049V154.049C199.274 154.052 199.895 154.178 200.475 154.42C201.054 154.662 201.58 155.016 202.022 155.46C202.465 155.905 202.815 156.432 203.053 157.012C203.29 157.591 203.411 158.212 203.408 158.838V158.838C203.413 160.102 202.914 161.316 202.021 162.214C201.128 163.111 199.914 163.619 198.646 163.625C197.378 163.619 196.164 163.111 195.272 162.213C194.379 161.316 193.881 160.102 193.886 158.838V158.838ZM169.659 158.838C169.654 158.212 169.774 157.591 170.01 157.01C170.247 156.43 170.597 155.902 171.039 155.457C171.482 155.012 172.008 154.659 172.588 154.417C173.167 154.175 173.79 154.05 174.418 154.049V154.049C175.687 154.056 176.902 154.565 177.794 155.464C178.687 156.363 179.185 157.579 179.179 158.843V158.843C179.179 160.106 178.678 161.317 177.787 162.213C176.895 163.11 175.684 163.619 174.418 163.63V163.63C173.15 163.623 171.936 163.114 171.043 162.216C170.151 161.317 169.653 160.102 169.659 158.838V158.838ZM145.408 158.838C145.404 158.212 145.524 157.592 145.761 157.013C145.998 156.433 146.348 155.906 146.789 155.461C147.231 155.016 147.756 154.663 148.335 154.421C148.914 154.178 149.535 154.052 150.163 154.049V154.049C150.792 154.049 151.415 154.173 151.995 154.414C152.576 154.655 153.103 155.009 153.545 155.454C153.988 155.899 154.337 156.428 154.574 157.009C154.81 157.589 154.929 158.211 154.922 158.838V158.838C154.927 159.464 154.808 160.085 154.571 160.665C154.335 161.245 153.985 161.773 153.543 162.218C153.101 162.663 152.575 163.016 151.995 163.258C151.415 163.499 150.793 163.624 150.165 163.625V163.625C148.898 163.617 147.685 163.109 146.793 162.212C145.902 161.314 145.403 160.101 145.408 158.838ZM121.184 158.838C121.18 158.212 121.3 157.591 121.537 157.012C121.774 156.432 122.124 155.905 122.566 155.46C123.008 155.015 123.533 154.662 124.112 154.42C124.692 154.178 125.313 154.052 125.941 154.049V154.049C126.569 154.05 127.192 154.175 127.771 154.417C128.351 154.659 128.877 155.012 129.32 155.457C129.762 155.902 130.112 156.43 130.349 157.01C130.585 157.591 130.705 158.212 130.7 158.838V158.838C130.703 159.464 130.583 160.084 130.345 160.664C130.108 161.243 129.758 161.77 129.316 162.214C128.874 162.659 128.348 163.012 127.769 163.254C127.19 163.496 126.569 163.622 125.941 163.625V163.625C124.674 163.617 123.462 163.108 122.57 162.211C121.678 161.314 121.18 160.101 121.184 158.838ZM96.9542 158.838C96.9499 158.213 97.0696 157.592 97.3064 157.013C97.5432 156.434 97.8925 155.907 98.3342 155.462C98.7759 155.018 99.3013 154.665 99.8802 154.423C100.459 154.182 101.08 154.056 101.708 154.055V154.055C102.336 154.054 102.959 154.178 103.539 154.418C104.119 154.659 104.646 155.012 105.088 155.457C105.531 155.901 105.88 156.429 106.117 157.01C106.353 157.59 106.472 158.212 106.465 158.838V158.838C106.469 159.464 106.349 160.084 106.112 160.664C105.875 161.243 105.526 161.77 105.084 162.215C104.642 162.659 104.117 163.013 103.538 163.255C102.959 163.497 102.338 163.623 101.71 163.625V163.625C100.443 163.615 99.2325 163.106 98.3415 162.209C97.4505 161.312 96.9517 160.1 96.9542 158.838V158.838ZM72.7266 158.838C72.7211 158.212 72.8399 157.591 73.0762 157.011C73.3125 156.431 73.6616 155.903 74.1035 155.458C74.5454 155.012 75.0712 154.659 75.6508 154.417C76.2303 154.176 76.8521 154.05 77.4803 154.049C78.1086 154.052 78.7303 154.178 79.3097 154.42C79.8892 154.662 80.4152 155.015 80.8577 155.46C81.3001 155.905 81.6503 156.432 81.8883 157.012C82.1264 157.591 82.2475 158.212 82.2449 158.838C82.2464 160.1 81.7471 161.312 80.8559 162.209C79.9647 163.105 78.7539 163.614 77.4876 163.625V163.625C76.8596 163.623 76.2382 163.497 75.659 163.255C75.0798 163.013 74.5542 162.66 74.1123 162.215C73.6704 161.771 73.3208 161.244 73.0836 160.664C72.8464 160.084 72.7263 159.464 72.7302 158.838H72.7266ZM48.4953 158.838C48.4893 158.211 48.6079 157.59 48.8443 157.009C49.0807 156.429 49.4301 155.901 49.8724 155.455C50.3148 155.01 50.8412 154.657 51.4214 154.415C52.0016 154.174 52.624 154.05 53.2527 154.049C53.881 154.051 54.5027 154.177 55.0822 154.419C55.6617 154.661 56.1876 155.014 56.6298 155.459C57.0721 155.904 57.4219 156.432 57.6594 157.011C57.8968 157.591 58.0173 158.212 58.0137 158.838V158.838C58.0156 160.101 57.516 161.313 56.6239 162.21C55.7318 163.107 54.5198 163.616 53.2527 163.625V163.625C52.6247 163.623 52.0033 163.497 51.4241 163.255C50.8449 163.013 50.3193 162.66 49.8774 162.215C49.4355 161.771 49.0859 161.244 48.8487 160.664C48.6116 160.084 48.4914 159.464 48.4953 158.838ZM24.2658 158.838C24.2603 158.212 24.3792 157.591 24.6157 157.01C24.8521 156.43 25.2014 155.902 25.6434 155.457C26.0855 155.012 26.6115 154.658 27.1913 154.417C27.771 154.175 28.393 154.05 29.0214 154.049C29.6495 154.052 30.2709 154.178 30.8501 154.42C31.4292 154.662 31.9549 155.016 32.3969 155.46C32.8389 155.905 33.1886 156.432 33.426 157.012C33.6634 157.592 33.7839 158.212 33.7806 158.838V158.838C33.784 160.101 33.2855 161.313 32.3943 162.21C31.5031 163.107 30.2917 163.616 29.025 163.625V163.625C28.3971 163.623 27.7757 163.497 27.1965 163.255C26.6173 163.013 26.0917 162.66 25.6497 162.215C25.2076 161.77 24.8579 161.243 24.6204 160.664C24.383 160.084 24.2625 159.464 24.2658 158.838V158.838Z" fill="#BC9A6C"/>
</g>
</g>
<g opacity="0.91">
<g opacity="0.91">
<path opacity="0.91" d="M271.333 163.631C270.066 163.614 268.857 163.102 267.966 162.206C267.074 161.31 266.571 160.1 266.564 158.838C266.582 157.568 267.086 156.352 267.974 155.44C268.64 154.77 269.492 154.315 270.42 154.131C271.348 153.948 272.31 154.045 273.183 154.41C274.055 154.775 274.798 155.392 275.316 156.181C275.835 156.97 276.105 157.895 276.092 158.838C276.095 159.465 275.975 160.085 275.738 160.665C275.5 161.245 275.151 161.773 274.709 162.218C274.267 162.663 273.741 163.017 273.162 163.259C272.582 163.502 271.961 163.628 271.333 163.631V163.631Z" fill="#BC9A6C"/>
</g>
</g>
</g>
<g opacity="0.91">
<g opacity="0.91">
<g opacity="0.91">
<path opacity="0.91" d="M242.346 185.168C242.345 183.905 242.845 182.693 243.737 181.795C244.629 180.897 245.841 180.387 247.108 180.376V180.376C247.737 180.379 248.358 180.505 248.938 180.748C249.517 180.99 250.043 181.344 250.485 181.789C250.927 182.234 251.276 182.762 251.514 183.341C251.751 183.921 251.871 184.542 251.868 185.168V185.168C251.872 185.794 251.752 186.415 251.514 186.995C251.277 187.575 250.928 188.102 250.485 188.547C250.043 188.992 249.517 189.345 248.938 189.587C248.358 189.828 247.737 189.954 247.108 189.955V189.955C245.84 189.949 244.626 189.441 243.733 188.544C242.84 187.646 242.341 186.432 242.346 185.168V185.168ZM218.118 185.168C218.116 183.906 218.615 182.695 219.506 181.799C220.398 180.903 221.609 180.395 222.875 180.387V180.387C224.142 180.395 225.354 180.902 226.247 181.798C227.14 182.694 227.64 183.906 227.64 185.168V185.168C227.643 185.794 227.521 186.414 227.283 186.994C227.045 187.573 226.695 188.1 226.252 188.544C225.81 188.988 225.284 189.341 224.704 189.582C224.125 189.823 223.503 189.948 222.875 189.95V189.95C222.248 189.947 221.627 189.821 221.049 189.58C220.47 189.338 219.945 188.985 219.503 188.541C219.061 188.097 218.712 187.571 218.474 186.992C218.236 186.413 218.115 185.794 218.118 185.168V185.168ZM193.887 185.168C193.884 184.543 194.005 183.922 194.242 183.343C194.48 182.764 194.83 182.237 195.272 181.792C195.714 181.348 196.239 180.995 196.818 180.752C197.397 180.51 198.018 180.384 198.646 180.381V180.381C199.914 180.387 201.128 180.895 202.021 181.792C202.915 182.69 203.414 183.904 203.409 185.168V185.168C203.412 185.794 203.291 186.415 203.053 186.994C202.815 187.573 202.465 188.1 202.023 188.544C201.58 188.988 201.054 189.341 200.475 189.582C199.895 189.823 199.274 189.948 198.646 189.95V189.95C198.018 189.95 197.396 189.826 196.816 189.586C196.236 189.345 195.709 188.992 195.267 188.548C194.824 188.103 194.474 187.576 194.237 186.996C194.001 186.415 193.881 185.794 193.887 185.168V185.168ZM169.659 185.168C169.656 184.543 169.776 183.923 170.013 183.343C170.251 182.764 170.6 182.237 171.042 181.793C171.483 181.348 172.008 180.995 172.587 180.752C173.166 180.51 173.787 180.384 174.415 180.381V180.381C175.682 180.389 176.895 180.897 177.787 181.795C178.679 182.692 179.178 183.905 179.174 185.168V185.168C179.178 185.794 179.058 186.414 178.82 186.993C178.583 187.572 178.234 188.099 177.792 188.543C177.35 188.987 176.825 189.34 176.246 189.582C175.667 189.823 175.046 189.948 174.418 189.95C173.79 189.95 173.168 189.825 172.588 189.585C172.009 189.344 171.482 188.991 171.04 188.546C170.598 188.102 170.248 187.575 170.011 186.995C169.774 186.415 169.654 185.794 169.659 185.168V185.168ZM145.408 185.168C145.404 183.904 145.903 182.69 146.796 181.791C147.689 180.893 148.902 180.384 150.171 180.376V180.376C150.799 180.379 151.42 180.504 151.999 180.747C152.578 180.989 153.104 181.342 153.546 181.786C153.988 182.231 154.337 182.758 154.575 183.337C154.812 183.917 154.933 184.537 154.93 185.163V185.163C154.935 185.79 154.816 186.412 154.579 186.993C154.341 187.573 153.991 188.102 153.548 188.547C153.105 188.992 152.577 189.345 151.996 189.586C151.416 189.827 150.793 189.95 150.163 189.95C149.536 189.947 148.916 189.821 148.337 189.58C147.758 189.338 147.233 188.985 146.792 188.541C146.35 188.097 146.001 187.571 145.763 186.992C145.526 186.413 145.405 185.794 145.408 185.168V185.168ZM121.182 185.168C121.18 183.907 121.679 182.695 122.569 181.799C123.46 180.902 124.67 180.392 125.936 180.381C127.205 180.388 128.42 180.896 129.313 181.795C130.207 182.693 130.706 183.909 130.7 185.174V185.174C130.704 185.8 130.584 186.42 130.347 187C130.11 187.579 129.76 188.106 129.318 188.55C128.876 188.995 128.35 189.347 127.77 189.589C127.191 189.83 126.569 189.954 125.941 189.955C125.313 189.953 124.692 189.827 124.113 189.585C123.534 189.343 123.008 188.989 122.566 188.545C122.124 188.1 121.775 187.573 121.537 186.994C121.3 186.414 121.179 185.794 121.182 185.168V185.168ZM96.9526 185.168C96.9478 183.904 97.4463 182.689 98.3389 181.791C99.2314 180.892 100.445 180.384 101.714 180.376V180.376C102.981 180.385 104.193 180.894 105.084 181.793C105.975 182.691 106.472 183.905 106.466 185.168V185.168C106.47 185.795 106.35 186.416 106.113 186.997C105.875 187.577 105.525 188.105 105.082 188.55C104.64 188.995 104.113 189.348 103.533 189.589C102.952 189.83 102.33 189.955 101.701 189.955V189.955C100.435 189.947 99.2234 189.438 98.3331 188.541C97.4428 187.643 96.9463 186.43 96.9526 185.168V185.168ZM72.7232 185.168C72.7226 183.906 73.2223 182.695 74.1133 181.799C75.0043 180.902 76.2145 180.393 77.4806 180.381V180.381C78.7484 180.392 79.9604 180.902 80.8528 181.8C81.7453 182.697 82.2457 183.91 82.2452 185.174V185.174C82.2478 185.799 82.1268 186.419 81.8892 186.997C81.6515 187.576 81.3018 188.103 80.86 188.547C80.4183 188.991 79.8931 189.343 79.3145 189.585C78.7359 189.827 78.1152 189.953 77.4878 189.955V189.955C76.8601 189.952 76.239 189.826 75.6602 189.584C75.0813 189.342 74.556 188.989 74.1142 188.544C73.6724 188.1 73.3228 187.573 73.0854 186.993C72.8479 186.414 72.7273 185.794 72.7304 185.168H72.7232ZM48.4955 185.168C48.4922 184.543 48.6127 183.923 48.8501 183.344C49.0875 182.765 49.4372 182.238 49.8791 181.794C50.321 181.35 50.8464 180.997 51.4254 180.755C52.0043 180.514 52.6254 180.389 53.2529 180.387V180.387C54.5203 180.395 55.7329 180.903 56.6252 181.8C57.5175 182.698 58.0168 183.91 58.0139 185.174V185.174C58.017 185.799 57.8964 186.419 57.659 186.998C57.4217 187.576 57.0722 188.103 56.6305 188.547C56.1889 188.991 55.6637 189.344 55.0851 189.586C54.5065 189.827 53.8857 189.953 53.2584 189.955V189.955C52.629 189.957 52.0057 189.834 51.4244 189.594C50.8432 189.353 50.3157 189 49.8725 188.555C49.4294 188.109 49.0795 187.58 48.8431 186.999C48.6067 186.418 48.4886 185.795 48.4955 185.168V185.168ZM24.2661 185.168C24.2625 184.542 24.3828 183.922 24.6202 183.342C24.8576 182.763 25.2073 182.235 25.6494 181.791C26.0915 181.346 26.6172 180.993 27.1965 180.751C27.7758 180.509 28.3973 180.384 29.0253 180.381V180.381C30.2919 180.39 31.5034 180.899 32.3946 181.796C33.2858 182.693 33.7842 183.906 33.7808 185.168V185.168C33.7839 185.794 33.6633 186.414 33.4256 186.993C33.188 187.572 32.8382 188.099 32.3961 188.543C31.9541 188.987 31.4285 189.34 30.8495 189.581C30.2704 189.823 29.6493 189.948 29.0217 189.95V189.95C28.3935 189.95 27.7716 189.826 27.1918 189.586C26.612 189.345 26.0858 188.992 25.6436 188.547C25.2014 188.103 24.852 187.575 24.6155 186.995C24.3791 186.415 24.2603 185.794 24.2661 185.168V185.168Z" fill="#BC9A6C"/>
</g>
</g>
<g opacity="0.91">
<g opacity="0.91">
<path opacity="0.91" d="M271.333 189.955C270.074 189.952 268.868 189.455 267.974 188.572C267.083 187.66 266.58 186.441 266.568 185.168C266.568 183.906 267.071 182.696 267.966 181.804C268.861 180.912 270.076 180.41 271.342 180.41C272.608 180.41 273.822 180.912 274.717 181.804C275.612 182.696 276.115 183.906 276.115 185.168C276.102 186.438 275.6 187.655 274.713 188.567C273.813 189.455 272.599 189.953 271.333 189.955V189.955Z" fill="#BC9A6C"/>
</g>
</g>
</g>
</g>
<g opacity="0.91">
<g opacity="0.91">
<g opacity="0.91">
<g opacity="0.91">
<path opacity="0.91" d="M4.77461 218.01C4.14803 218.009 3.52799 217.883 2.95109 217.639C2.37419 217.396 1.85208 217.039 1.41556 216.591C0.532924 215.689 0.0389404 214.479 0.0389404 213.219C0.0389404 211.959 0.532924 210.749 1.41556 209.847C2.32156 208.983 3.52526 208.499 4.77876 208.493C6.03226 208.488 7.24016 208.962 8.15359 209.818C9.03227 210.734 9.52719 211.95 9.53746 213.218C9.53336 214.479 9.03628 215.689 8.15176 216.591C7.71317 217.042 7.18812 217.399 6.60793 217.643C6.02773 217.887 5.40426 218.012 4.77461 218.01V218.01Z" fill="#BC9A6C"/>
</g>
</g>
<g opacity="0.91">
<g opacity="0.91">
<path opacity="0.91" d="M242.346 213.221C242.343 212.595 242.464 211.974 242.701 211.393C242.939 210.813 243.289 210.286 243.731 209.84C244.173 209.395 244.699 209.041 245.279 208.799C245.859 208.556 246.481 208.43 247.109 208.427V208.427C247.738 208.428 248.36 208.553 248.94 208.795C249.52 209.037 250.046 209.39 250.488 209.836C250.931 210.281 251.28 210.809 251.517 211.389C251.754 211.97 251.873 212.591 251.868 213.218C251.874 214.482 251.376 215.697 250.484 216.595C249.591 217.494 248.378 218.003 247.109 218.01C245.841 218.001 244.629 217.493 243.736 216.595C242.844 215.698 242.344 214.485 242.346 213.221V213.221ZM218.119 213.221C218.115 212.595 218.236 211.975 218.473 211.396C218.71 210.816 219.06 210.289 219.502 209.844C219.944 209.399 220.469 209.046 221.048 208.804C221.627 208.561 222.248 208.435 222.876 208.432V208.432C223.505 208.433 224.128 208.557 224.708 208.799C225.289 209.04 225.815 209.393 226.258 209.838C226.701 210.284 227.051 210.812 227.289 211.392C227.526 211.973 227.646 212.594 227.641 213.221V213.221C227.643 214.485 227.143 215.699 226.25 216.596C225.357 217.493 224.144 218.002 222.876 218.01V218.01C221.609 218 220.398 217.491 219.507 216.594C218.615 215.696 218.116 214.484 218.119 213.221V213.221ZM193.886 213.221C193.881 212.595 194 211.973 194.237 211.392C194.474 210.812 194.824 210.284 195.266 209.839C195.709 209.393 196.235 209.04 196.815 208.798C197.395 208.556 198.018 208.432 198.647 208.431V208.431C199.916 208.437 201.131 208.945 202.025 209.843C202.919 210.741 203.419 211.956 203.415 213.221V213.221C203.415 214.485 202.913 215.698 202.02 216.595C201.127 217.493 199.915 218.003 198.647 218.014V218.014C198.018 218.01 197.397 217.884 196.817 217.641C196.238 217.398 195.712 217.044 195.27 216.598C194.828 216.153 194.479 215.625 194.241 215.045C194.004 214.465 193.884 213.844 193.887 213.218L193.886 213.221ZM169.667 213.221C169.661 212.595 169.779 211.973 170.015 211.393C170.25 210.812 170.599 210.284 171.041 209.839C171.483 209.393 172.009 209.039 172.589 208.798C173.169 208.556 173.791 208.431 174.419 208.431V208.431C175.048 208.434 175.669 208.56 176.249 208.803C176.828 209.045 177.354 209.399 177.796 209.845C178.238 210.29 178.588 210.818 178.825 211.398C179.063 211.977 179.183 212.598 179.18 213.225V213.225C179.184 214.487 178.686 215.699 177.795 216.595C176.903 217.491 175.692 217.999 174.426 218.006V218.006C173.798 218.006 173.175 217.881 172.595 217.64C172.015 217.399 171.488 217.045 171.046 216.6C170.604 216.155 170.254 215.627 170.017 215.046C169.781 214.466 169.662 213.844 169.667 213.218V213.221ZM145.432 213.221C145.426 212.597 145.544 211.977 145.779 211.398C146.014 210.819 146.362 210.292 146.801 209.847C147.241 209.402 147.765 209.047 148.342 208.804C148.92 208.561 149.539 208.434 150.166 208.431C150.796 208.431 151.42 208.556 152.002 208.797C152.584 209.039 153.112 209.393 153.557 209.838C154.001 210.283 154.353 210.812 154.592 211.393C154.831 211.974 154.953 212.597 154.951 213.225V213.225C154.951 214.492 154.448 215.708 153.55 216.605C152.653 217.503 151.435 218.009 150.164 218.014V218.014C149.538 218.008 148.918 217.88 148.341 217.636C147.764 217.393 147.241 217.038 146.802 216.592C146.362 216.147 146.015 215.62 145.78 215.041C145.545 214.462 145.427 213.842 145.432 213.218V213.221ZM121.183 213.221C121.179 212.595 121.299 211.975 121.536 211.396C121.773 210.816 122.122 210.289 122.563 209.844C123.005 209.399 123.53 209.045 124.109 208.803C124.688 208.56 125.309 208.434 125.937 208.431C126.566 208.432 127.189 208.557 127.769 208.798C128.35 209.04 128.877 209.394 129.32 209.84C129.762 210.285 130.113 210.814 130.35 211.395C130.587 211.976 130.706 212.598 130.701 213.225V213.225C130.704 213.85 130.583 214.47 130.345 215.049C130.107 215.628 129.757 216.154 129.315 216.598C128.873 217.042 128.348 217.395 127.769 217.637C127.19 217.878 126.57 218.004 125.942 218.006V218.006C124.674 218 123.461 217.492 122.568 216.594C121.676 215.696 121.178 214.481 121.183 213.218V213.221ZM96.9534 213.221C96.9498 212.595 97.0701 211.974 97.3075 211.394C97.5449 210.814 97.8947 210.286 98.3369 209.841C98.779 209.395 99.3049 209.041 99.8844 208.799C100.464 208.556 101.086 208.43 101.714 208.427V208.427C102.343 208.429 102.965 208.554 103.545 208.796C104.124 209.038 104.65 209.392 105.093 209.837C105.535 210.282 105.884 210.81 106.121 211.39C106.358 211.97 106.478 212.591 106.474 213.218V213.218C106.478 214.483 105.979 215.698 105.086 216.596C104.193 217.495 102.978 218.003 101.709 218.01V218.01C100.443 217.998 99.2328 217.488 98.3422 216.591C97.4515 215.694 96.9524 214.483 96.9534 213.221V213.221ZM72.7239 213.221C72.7186 211.958 73.2166 210.743 74.1085 209.845C75.0004 208.947 76.2135 208.438 77.4813 208.431V208.431C78.7506 208.438 79.9652 208.947 80.8585 209.845C81.7517 210.744 82.2508 211.96 82.2459 213.225V213.225C82.2474 214.487 81.7482 215.699 80.857 216.596C79.9659 217.493 78.7551 218.003 77.4886 218.014V218.014C76.2213 218.001 75.0102 217.49 74.1191 216.592C73.2281 215.694 72.7292 214.481 72.7312 213.218L72.7239 213.221ZM48.4963 213.221C48.491 212.595 48.6102 211.974 48.8469 211.394C49.0835 210.814 49.433 210.286 49.8753 209.841C50.3175 209.396 50.8438 209.043 51.4236 208.802C52.0034 208.561 52.6254 208.436 53.2537 208.436V208.436C53.8819 208.438 54.5035 208.564 55.0829 208.806C55.6623 209.048 56.1881 209.402 56.6303 209.847C57.0725 210.291 57.4224 210.819 57.6599 211.398C57.8974 211.978 58.018 212.599 58.0147 213.225C58.0171 214.487 57.5184 215.699 56.6275 216.596C55.7365 217.494 54.5256 218.003 53.2591 218.014V218.014C51.9895 218.007 50.7746 217.498 49.8814 216.599C48.9883 215.699 48.49 214.483 48.4963 213.218V213.221ZM24.2668 213.221C24.2608 212.594 24.3796 211.972 24.6162 211.39C24.8529 210.809 25.2027 210.28 25.6456 209.835C26.0884 209.389 26.6155 209.035 27.1963 208.793C27.7772 208.552 28.4003 208.427 29.0297 208.427V208.427C29.6577 208.43 30.2791 208.556 30.8582 208.798C31.4373 209.041 31.9627 209.395 32.4046 209.839C32.8464 210.284 33.1959 210.812 33.4332 211.391C33.6704 211.971 33.7906 212.592 33.7871 213.218C33.7881 214.481 33.2877 215.694 32.3952 216.592C31.5027 217.49 30.2903 218 29.0224 218.01V218.01C28.3946 218.007 27.7737 217.881 27.1949 217.638C26.6161 217.396 26.0909 217.042 25.6493 216.598C25.2077 216.153 24.8583 215.626 24.6211 215.046C24.3839 214.467 24.2635 213.847 24.2668 213.221V213.221Z" fill="#BC9A6C"/>
</g>
</g>
<g opacity="0.91">
<g opacity="0.91">
<path opacity="0.91" d="M271.333 218.01C270.706 218.009 270.086 217.884 269.509 217.64C268.932 217.396 268.41 217.039 267.974 216.591C267.082 215.698 266.582 214.49 266.581 213.23C266.58 211.97 267.079 210.761 267.969 209.866C268.859 208.972 270.068 208.465 271.332 208.456C272.596 208.447 273.812 208.936 274.716 209.817C275.598 210.733 276.097 211.949 276.112 213.218C276.104 214.481 275.601 215.692 274.71 216.591C274.272 217.041 273.747 217.399 273.166 217.643C272.586 217.887 271.963 218.012 271.333 218.01V218.01Z" fill="#BC9A6C"/>
</g>
</g>
</g>
<g opacity="0.91">
<g opacity="0.91">
<g opacity="0.91">
<path opacity="0.91" d="M4.77455 244.358C3.51234 244.348 2.30498 243.842 1.41551 242.95C0.530605 242.043 0.0355225 240.828 0.0355225 239.563C0.0355225 238.298 0.530605 237.083 1.41551 236.176C2.08202 235.507 2.93368 235.052 3.86132 234.869C4.78897 234.686 5.75038 234.783 6.6223 235.148C7.49422 235.513 8.23694 236.129 8.75533 236.917C9.27371 237.706 9.54411 238.63 9.53189 239.573C9.52943 240.834 9.03443 242.045 8.15168 242.95C7.25553 243.843 6.04224 244.349 4.77455 244.358V244.358Z" fill="#BC9A6C"/>
</g>
</g>
<g opacity="0.91">
<g opacity="0.91">
<path opacity="0.91" d="M242.343 239.572C242.34 238.946 242.462 238.326 242.7 237.746C242.938 237.167 243.288 236.64 243.731 236.195C244.174 235.751 244.7 235.398 245.28 235.156C245.859 234.915 246.481 234.789 247.109 234.787V234.787C247.738 234.788 248.36 234.912 248.94 235.153C249.52 235.394 250.046 235.748 250.488 236.192C250.931 236.637 251.28 237.165 251.517 237.745C251.754 238.325 251.874 238.946 251.869 239.572C251.872 240.199 251.751 240.819 251.514 241.399C251.276 241.978 250.926 242.505 250.484 242.95C250.042 243.395 249.517 243.749 248.938 243.991C248.359 244.234 247.737 244.36 247.109 244.363V244.363C245.842 244.352 244.63 243.843 243.737 242.945C242.844 242.048 242.343 240.836 242.343 239.572V239.572ZM218.128 239.572C218.124 238.947 218.243 238.327 218.48 237.748C218.716 237.169 219.065 236.642 219.506 236.198C219.947 235.753 220.472 235.4 221.05 235.158C221.629 234.916 222.249 234.79 222.876 234.787V234.787C223.504 234.789 224.126 234.915 224.705 235.157C225.285 235.398 225.811 235.751 226.253 236.196C226.696 236.64 227.046 237.167 227.284 237.747C227.522 238.326 227.644 238.946 227.641 239.572V239.572C227.641 240.835 227.14 242.047 226.248 242.943C225.355 243.84 224.143 244.348 222.876 244.358V244.358C222.249 244.354 221.629 244.228 221.051 243.986C220.473 243.743 219.948 243.39 219.508 242.946C219.067 242.501 218.718 241.975 218.481 241.396C218.244 240.817 218.124 240.197 218.128 239.572ZM193.888 239.572C193.883 238.946 194.002 238.325 194.239 237.745C194.476 237.165 194.826 236.638 195.268 236.193C195.711 235.748 196.237 235.395 196.817 235.154C197.397 234.913 198.019 234.788 198.647 234.787V234.787C199.275 234.789 199.897 234.915 200.476 235.156C201.056 235.398 201.582 235.751 202.024 236.195C202.466 236.64 202.816 237.167 203.054 237.746C203.292 238.326 203.413 238.946 203.41 239.572V239.572C203.412 240.836 202.912 242.05 202.02 242.947C201.127 243.845 199.915 244.354 198.647 244.363V244.363C197.379 244.355 196.166 243.847 195.273 242.949C194.381 242.051 193.883 240.836 193.888 239.572V239.572ZM169.66 239.572C169.655 238.946 169.774 238.325 170.011 237.745C170.248 237.164 170.598 236.637 171.041 236.192C171.483 235.747 172.01 235.394 172.59 235.153C173.17 234.912 173.793 234.788 174.421 234.787V234.787C175.689 234.793 176.903 235.3 177.795 236.198C178.688 237.095 179.187 238.309 179.182 239.572V239.572C179.183 240.836 178.683 242.048 177.791 242.945C176.9 243.842 175.688 244.352 174.421 244.363V244.363C173.152 244.357 171.938 243.849 171.045 242.95C170.153 242.052 169.654 240.837 169.66 239.572V239.572ZM145.438 239.572C145.431 238.948 145.549 238.329 145.783 237.75C146.018 237.172 146.365 236.645 146.804 236.2C147.243 235.755 147.767 235.402 148.344 235.159C148.921 234.917 149.54 234.79 150.166 234.787V234.787C150.795 234.788 151.417 234.912 151.998 235.153C152.578 235.394 153.105 235.747 153.548 236.192C153.991 236.636 154.341 237.164 154.578 237.744C154.815 238.325 154.935 238.946 154.931 239.572V239.572C154.934 240.199 154.814 240.819 154.576 241.399C154.339 241.979 153.989 242.506 153.547 242.951C153.105 243.396 152.58 243.749 152 243.992C151.421 244.234 150.8 244.36 150.172 244.363C149.545 244.358 148.926 244.231 148.349 243.987C147.772 243.744 147.249 243.39 146.809 242.945C146.37 242.5 146.022 241.973 145.787 241.395C145.552 240.816 145.433 240.197 145.438 239.572V239.572ZM121.183 239.572C121.18 238.947 121.3 238.326 121.538 237.747C121.775 237.168 122.125 236.641 122.567 236.196C123.009 235.752 123.535 235.398 124.114 235.157C124.693 234.915 125.314 234.789 125.942 234.787V234.787C126.571 234.788 127.192 234.913 127.772 235.154C128.352 235.395 128.878 235.748 129.321 236.193C129.763 236.638 130.113 237.165 130.35 237.745C130.587 238.325 130.706 238.946 130.701 239.572V239.572C130.707 240.837 130.209 242.051 129.317 242.95C128.424 243.848 127.211 244.356 125.942 244.363C124.674 244.354 123.462 243.845 122.57 242.948C121.678 242.05 121.179 240.836 121.183 239.572V239.572ZM96.9554 239.572C96.9518 238.947 97.072 238.327 97.309 237.748C97.5461 237.169 97.8954 236.642 98.3369 236.198C98.7784 235.753 99.3035 235.4 99.8821 235.158C100.461 234.916 101.082 234.79 101.709 234.787V234.787C102.338 234.789 102.96 234.915 103.54 235.157C104.12 235.399 104.646 235.753 105.088 236.198C105.53 236.644 105.88 237.172 106.116 237.753C106.353 238.333 106.472 238.955 106.466 239.582V239.582C106.47 240.844 105.971 242.057 105.079 242.953C104.186 243.849 102.974 244.356 101.707 244.363C100.441 244.353 99.2296 243.843 98.3391 242.946C97.4485 242.048 96.951 240.835 96.9554 239.572V239.572ZM72.7241 239.582C72.7176 238.954 72.8361 238.331 73.0727 237.75C73.3093 237.168 73.6593 236.639 74.1024 236.193C74.5456 235.747 75.073 235.393 75.6543 235.152C76.2356 234.911 76.8591 234.787 77.4888 234.787V234.787C78.1164 234.79 78.7372 234.916 79.316 235.158C79.8947 235.4 80.42 235.754 80.8617 236.198C81.3035 236.642 81.6531 237.169 81.8907 237.748C82.1282 238.327 82.249 238.947 82.2461 239.572V239.572C82.2476 240.836 81.7474 242.049 80.8547 242.947C79.962 243.844 78.7494 244.354 77.4815 244.363V244.363C76.2157 244.356 75.0046 243.848 74.1139 242.952C73.2233 242.055 72.726 240.843 72.7313 239.582H72.7241ZM48.4965 239.582C48.4895 238.954 48.6074 238.332 48.8434 237.751C49.0794 237.169 49.4287 236.641 49.8711 236.195C50.3136 235.749 50.8404 235.395 51.4211 235.153C52.0017 234.912 52.6247 234.787 53.2539 234.787C53.8818 234.79 54.503 234.915 55.0822 235.157C55.6614 235.399 56.187 235.752 56.6292 236.197C57.0713 236.641 57.4213 237.168 57.6591 237.747C57.8968 238.326 58.0177 238.947 58.0149 239.572V239.572C58.0178 240.836 57.5186 242.049 56.6264 242.947C55.7342 243.845 54.5216 244.354 53.2539 244.363V244.363C52.6264 244.361 52.0054 244.236 51.4266 243.994C50.8478 243.752 50.3224 243.4 49.8805 242.955C49.4387 242.511 49.089 241.985 48.8515 241.406C48.614 240.827 48.4934 240.207 48.4965 239.582V239.582ZM24.267 239.572C24.262 238.946 24.3814 238.325 24.6183 237.745C24.8551 237.165 25.2048 236.637 25.6472 236.192C26.0896 235.748 26.6159 235.394 27.1959 235.153C27.7758 234.912 28.3979 234.788 29.0262 234.787V234.787C29.6541 234.789 30.2754 234.915 30.8546 235.156C31.4338 235.398 31.9594 235.751 32.4014 236.196C32.8433 236.64 33.1929 237.167 33.4301 237.747C33.6673 238.326 33.7874 238.947 33.7836 239.572V239.572C33.786 240.835 33.2872 242.048 32.3958 242.945C31.5045 243.843 30.2932 244.353 29.0262 244.363C28.398 244.36 27.7764 244.234 27.1971 243.992C26.6178 243.75 26.0921 243.396 25.6501 242.951C25.2081 242.506 24.8584 241.979 24.6211 241.399C24.3838 240.819 24.2634 240.199 24.267 239.572V239.572Z" fill="#BC9A6C"/>
</g>
</g>
<g opacity="0.91">
<g opacity="0.91">
<path opacity="0.91" d="M271.333 244.358C270.071 244.348 268.864 243.842 267.974 242.95C267.083 242.049 266.58 240.837 266.57 239.573C266.558 238.94 266.672 238.312 266.906 237.724C267.141 237.136 267.49 236.6 267.935 236.148C268.379 235.697 268.909 235.338 269.495 235.093C270.08 234.848 270.708 234.722 271.343 234.722C271.978 234.722 272.606 234.848 273.191 235.093C273.776 235.338 274.307 235.697 274.751 236.148C275.196 236.6 275.545 237.136 275.78 237.724C276.014 238.312 276.128 238.94 276.116 239.573C276.105 240.838 275.601 242.049 274.71 242.95C274.268 243.394 273.742 243.747 273.162 243.989C272.583 244.23 271.961 244.356 271.333 244.358Z" fill="#BC9A6C"/>
</g>
</g>
</g>
<g opacity="0.91">
<g opacity="0.91">
<g opacity="0.91">
<path opacity="0.91" d="M4.79815 269.881C3.53232 269.876 2.3184 269.378 1.41552 268.494C0.969528 268.054 0.614987 267.53 0.372112 266.952C0.129238 266.375 0.00282575 265.756 4.68232e-05 265.13C-0.0027321 264.504 0.11821 263.884 0.35595 263.305C0.593689 262.725 0.943569 262.198 1.38563 261.754C1.8277 261.309 2.35326 260.956 2.93234 260.714C3.51143 260.472 4.13273 260.346 4.76068 260.343C5.38863 260.34 6.01095 260.461 6.59217 260.698C7.17338 260.935 7.70207 261.283 8.14807 261.724C9.03746 262.628 9.5357 263.843 9.5357 265.109C9.5357 266.375 9.03746 267.59 8.14807 268.494C7.2563 269.375 6.05375 269.873 4.79815 269.881V269.881Z" fill="#BC9A6C"/>
</g>
</g>
<g opacity="0.91">
<g opacity="0.91">
<path opacity="0.91" d="M242.346 265.095C242.343 263.831 242.843 262.617 243.735 261.719C244.628 260.822 245.841 260.313 247.109 260.304V260.304C248.377 260.311 249.59 260.819 250.483 261.718C251.375 262.616 251.872 263.831 251.866 265.095V265.095C251.872 265.721 251.753 266.342 251.516 266.923C251.279 267.503 250.93 268.031 250.488 268.476C250.046 268.921 249.519 269.274 248.939 269.516C248.359 269.757 247.737 269.881 247.109 269.882C246.481 269.879 245.859 269.753 245.28 269.511C244.701 269.269 244.175 268.916 243.733 268.471C243.29 268.027 242.94 267.5 242.702 266.921C242.464 266.341 242.343 265.721 242.346 265.095V265.095ZM218.116 265.095C218.114 263.831 218.613 262.618 219.504 261.721C220.396 260.823 221.608 260.314 222.876 260.304V260.304C224.144 260.314 225.356 260.823 226.249 261.72C227.142 262.618 227.642 263.831 227.64 265.095V265.095C227.645 266.36 227.146 267.575 226.253 268.473C225.359 269.372 224.145 269.88 222.876 269.887C221.608 269.878 220.396 269.368 219.504 268.47C218.612 267.572 218.113 266.358 218.116 265.095V265.095ZM193.885 265.095C193.88 263.831 194.379 262.616 195.272 261.718C196.164 260.82 197.378 260.311 198.646 260.304V260.304C199.914 260.315 201.126 260.825 202.019 261.722C202.912 262.619 203.414 263.831 203.414 265.095C203.417 266.36 202.917 267.574 202.024 268.473C201.13 269.371 199.915 269.879 198.646 269.887V269.887C198.018 269.885 197.396 269.759 196.816 269.517C196.237 269.274 195.711 268.92 195.269 268.475C194.827 268.03 194.477 267.502 194.24 266.922C194.003 266.342 193.883 265.721 193.887 265.095H193.885ZM169.667 265.095C169.663 264.468 169.783 263.848 170.02 263.268C170.257 262.688 170.607 262.16 171.049 261.715C171.491 261.27 172.017 260.916 172.596 260.674C173.176 260.432 173.797 260.306 174.426 260.304V260.304C175.692 260.315 176.903 260.824 177.794 261.722C178.685 262.62 179.183 263.832 179.18 265.095V265.095C179.183 265.721 179.062 266.341 178.824 266.921C178.587 267.5 178.237 268.027 177.795 268.472C177.352 268.916 176.827 269.27 176.247 269.512C175.668 269.754 175.047 269.879 174.419 269.882V269.882C173.79 269.881 173.169 269.757 172.589 269.515C172.009 269.274 171.483 268.921 171.041 268.476C170.6 268.03 170.251 267.503 170.015 266.922C169.779 266.342 169.66 265.721 169.667 265.095V265.095ZM145.408 265.095C145.406 263.832 145.905 262.619 146.796 261.722C147.687 260.824 148.899 260.315 150.166 260.304V260.304C150.794 260.307 151.416 260.433 151.995 260.675C152.575 260.917 153.101 261.271 153.544 261.716C153.986 262.161 154.336 262.688 154.574 263.268C154.812 263.848 154.933 264.468 154.93 265.095V265.095C154.935 265.721 154.816 266.343 154.58 266.923C154.343 267.503 153.993 268.031 153.551 268.476C153.108 268.921 152.582 269.274 152.002 269.516C151.422 269.757 150.8 269.881 150.171 269.882C149.543 269.879 148.921 269.754 148.342 269.512C147.763 269.27 147.237 268.917 146.794 268.472C146.352 268.027 146.002 267.5 145.764 266.921C145.526 266.341 145.405 265.721 145.408 265.095V265.095ZM121.182 265.095C121.179 263.831 121.677 262.618 122.569 261.72C123.46 260.822 124.672 260.313 125.94 260.304V260.304C126.568 260.308 127.19 260.434 127.77 260.677C128.349 260.92 128.875 261.274 129.317 261.719C129.759 262.165 130.109 262.693 130.346 263.273C130.584 263.853 130.704 264.474 130.701 265.1V265.1C130.704 265.726 130.584 266.347 130.347 266.926C130.109 267.506 129.76 268.033 129.317 268.478C128.875 268.922 128.35 269.276 127.77 269.518C127.191 269.759 126.57 269.885 125.942 269.887V269.887C124.674 269.879 123.461 269.369 122.569 268.471C121.676 267.573 121.178 266.359 121.182 265.095ZM96.9529 265.095C96.951 263.832 97.4498 262.62 98.3406 261.723C99.2314 260.826 100.442 260.316 101.709 260.304V260.304C102.337 260.307 102.959 260.432 103.539 260.674C104.118 260.917 104.645 261.27 105.087 261.715C105.53 262.16 105.88 262.688 106.118 263.267C106.355 263.847 106.476 264.468 106.473 265.095V265.095C106.478 265.721 106.359 266.342 106.122 266.923C105.885 267.503 105.535 268.031 105.093 268.475C104.651 268.92 104.124 269.274 103.544 269.515C102.964 269.756 102.342 269.881 101.714 269.882V269.882C101.086 269.879 100.464 269.754 99.8852 269.512C99.3059 269.27 98.7801 268.916 98.338 268.472C97.8958 268.027 97.5458 267.5 97.3082 266.921C97.0705 266.341 96.9498 265.721 96.9529 265.095V265.095ZM72.7235 265.095C72.7206 263.832 73.2193 262.619 74.1107 261.721C75.0021 260.824 76.2138 260.314 77.4809 260.304V260.304C78.7485 260.313 79.9608 260.822 80.8527 261.72C81.7446 262.618 82.2435 263.831 82.2401 265.095V265.095C82.2441 265.721 82.1241 266.342 81.8869 266.921C81.6497 267.501 81.3 268.029 80.8578 268.473C80.4156 268.918 79.8897 269.271 79.3102 269.513C78.7307 269.755 78.1091 269.88 77.4809 269.882V269.882C76.8535 269.879 76.2329 269.752 75.6546 269.51C75.0762 269.268 74.5514 268.914 74.1103 268.47C73.6691 268.025 73.3203 267.498 73.0835 266.919C72.8468 266.34 72.7269 265.72 72.7307 265.095H72.7235ZM48.4958 265.095C48.4925 264.468 48.6131 263.847 48.8508 263.268C49.0884 262.688 49.4384 262.16 49.8808 261.715C50.3231 261.27 50.8492 260.917 51.4288 260.675C52.0084 260.432 52.6302 260.307 53.2587 260.304C54.5242 260.315 55.7343 260.823 56.6251 261.719C57.5159 262.615 58.0153 263.826 58.0143 265.088V265.088C58.0176 265.715 57.8968 266.336 57.6589 266.917C57.421 267.497 57.0705 268.025 56.6276 268.47C56.1847 268.916 55.6581 269.269 55.0778 269.512C54.4976 269.754 53.8751 269.88 53.246 269.882V269.882C52.618 269.881 51.9964 269.756 51.4171 269.514C50.8378 269.273 50.3122 268.919 49.8706 268.474C49.429 268.029 49.0802 267.502 48.8442 266.922C48.6083 266.342 48.4899 265.721 48.4958 265.095V265.095ZM24.2646 265.095C24.2608 264.468 24.381 263.847 24.6184 263.267C24.8557 262.687 25.2055 262.16 25.6478 261.715C26.09 261.27 26.6161 260.916 27.1957 260.674C27.7753 260.432 28.3972 260.306 29.0256 260.304V260.304C30.2923 260.317 31.5029 260.827 32.3944 261.724C33.2859 262.621 33.7862 263.832 33.7866 265.095C33.79 266.359 33.291 267.573 32.3987 268.471C31.5065 269.369 30.2937 269.878 29.0256 269.887V269.887C28.3972 269.885 27.7754 269.758 27.1959 269.516C26.6163 269.274 26.0904 268.92 25.6482 268.475C25.206 268.03 24.8562 267.502 24.6188 266.922C24.3814 266.342 24.261 265.721 24.2646 265.095V265.095Z" fill="#BC9A6C"/>
</g>
</g>
<g opacity="0.91">
<g opacity="0.91">
<path opacity="0.91" d="M271.333 269.882C270.074 269.877 268.868 269.379 267.974 268.495C267.085 267.584 266.581 266.366 266.568 265.095C266.578 264.317 266.778 263.554 267.153 262.871C267.527 262.189 268.064 261.609 268.716 261.182C269.368 260.755 270.116 260.494 270.892 260.423C271.669 260.351 272.452 260.471 273.172 260.771C273.891 261.072 274.526 261.544 275.019 262.146C275.513 262.749 275.851 263.463 276.003 264.225C276.155 264.988 276.116 265.776 275.891 266.521C275.665 267.265 275.26 267.943 274.71 268.495C273.81 269.379 272.597 269.877 271.333 269.882V269.882Z" fill="#BC9A6C"/>
</g>
</g>
</g>
</g>
</g>
</svg>
