<svg width="47" height="73" viewBox="0 0 47 73" fill="none" xmlns="http://www.w3.org/2000/svg">
<g clip-path="url(#clip0_2044_1592)">
<path d="M46.0117 20.2361C45.9403 19.3205 45.6447 18.5034 45.1794 17.9357L31.0805 0.729147C30.1222 -0.440342 28.7314 -0.17469 27.9804 1.32191L14.3222 28.5438L5.2595 38.0292C5.25932 38.0293 5.25914 38.0296 5.25887 38.0298L2.75726 40.6482L1.01022 42.4768C0.979452 42.509 0.949317 42.5422 0.919901 42.5765C0.477944 43.0895 0.177939 43.8302 0.0707106 44.6795C-0.0433543 45.5833 0.0745788 46.5021 0.40274 47.2666L0.40391 47.2692C0.40391 47.2694 0.404 47.2695 0.40409 47.2697L2.51996 52.1986L3.25292 53.9062L7.52199 63.8512C7.52199 63.8512 7.52208 63.8513 7.52208 63.8515L8.23031 65.5014L10.3645 70.4731C10.7899 71.4641 11.4898 71.9999 12.2021 71.9999C12.6247 71.9999 13.0518 71.8112 13.4286 71.4169L13.43 71.4155C13.4302 71.4152 13.4304 71.4151 13.4306 71.4149L17.5788 67.0732L19.4112 69.3094C19.8138 69.8006 20.2926 70.0387 20.7682 70.0387C21.4251 70.0387 22.0759 69.5846 22.5115 68.7166L29.7031 54.3832L40.1877 43.4095C40.2015 43.3971 40.2157 43.3868 40.2291 43.3729L44.4779 38.9257C44.9693 38.4114 45.3029 37.6291 45.4173 36.7232C45.5313 35.8193 45.4134 34.9006 45.0853 34.1361L45.0829 34.1308C45.0826 34.1301 45.0823 34.1292 45.082 34.1285L42.6769 28.5258L45.5572 22.7852C45.9218 22.0578 46.0833 21.1527 46.0117 20.2361ZM5.97348 46.4959C5.70856 48.5943 5.00807 50.4465 3.97698 51.8071L1.83386 46.8147L1.52441 46.0937C1.39676 45.7963 1.35079 45.4386 1.39523 45.0869C1.43418 44.7784 1.53844 44.5068 1.692 44.3095C1.71395 44.2814 1.73698 44.2547 1.7609 44.2296L2.97181 42.9623L5.41863 40.4014C6.04095 42.2709 6.23822 44.3987 5.97348 46.4959ZM12.6786 69.6629C12.2835 70.0748 11.7483 69.911 11.4849 69.2971L11.4553 69.2284L9.03992 63.6014C11.5084 61.6007 14.5557 62.5272 16.3474 65.823L12.6786 69.6629ZM21.4496 67.4144C21.1568 67.9979 20.6148 68.1021 20.2414 67.6463L18.7592 65.8373L26.0914 58.1631L21.4496 67.4144ZM39.5143 34.9063C39.7793 32.808 40.4797 30.9556 41.5108 29.595L43.9623 35.306C44.0893 35.6032 44.1349 35.9598 44.0905 36.3107C44.046 36.6634 43.9162 36.9679 43.7248 37.1681L40.0677 40.996C39.4466 39.1277 39.2499 37.0017 39.5143 34.9063ZM44.4952 21.4831L41.8859 26.6835L35.1214 10.9249C34.4435 9.34562 33.0689 8.92232 32.0572 9.98114L26.0796 16.2375C25.3547 16.9964 26.1053 18.7487 26.8304 17.9905L28.0113 16.7544C29.434 19.4903 31.546 20.9584 33.695 20.9584C34.8906 20.9584 36.0971 20.5023 37.2031 19.56L40.7556 27.8358C39.4277 29.5166 38.5253 31.8462 38.1904 34.4977C37.856 37.146 38.1235 39.8336 38.9413 42.1744L28.8571 52.7291C28.8561 52.7302 28.855 52.7312 28.854 52.7323L17.4732 64.6442C15.2588 60.3903 11.3778 59.2067 8.28465 61.8424L4.7319 53.5661C6.05984 51.8853 6.96228 49.5558 7.2971 46.9043C7.63174 44.2541 7.36367 41.5647 6.54444 39.2226L23.6961 21.2707C24.4209 20.5119 23.6702 18.7592 22.9453 19.5178L17.9336 24.7633L29.0421 2.62387C29.3348 2.04053 29.8767 1.93619 30.2503 2.39211L44.3491 19.5985C44.5299 19.819 44.6446 20.1361 44.6724 20.4918C44.7001 20.848 44.6373 21.2 44.4952 21.4831ZM32.808 11.7407C33.2034 11.3271 33.7393 11.4908 34.0031 12.1052L35.239 14.9842L36.4481 17.8009C33.9795 19.8017 30.9322 18.8752 29.1406 15.5794L32.808 11.7407Z" fill="white"/>
<path d="M17.8078 29.1999C15.8407 31.2589 14.505 34.391 14.0468 38.0196C13.5889 41.6465 14.0627 45.3351 15.3809 48.4058C16.7037 51.4874 18.7164 53.5755 21.0482 54.2854C21.8777 54.5377 22.148 52.4713 21.3061 52.2148C19.3291 51.6129 17.6228 49.8427 16.5013 47.2302C15.3841 44.6277 14.9825 41.5016 15.3706 38.4278C15.7589 35.3527 16.891 32.6978 18.5585 30.9526C22.0003 27.3502 26.6775 28.7924 28.9847 34.1671C30.1019 36.7698 30.5034 39.8959 30.1153 42.9697C29.727 46.0449 28.5949 48.6996 26.9275 50.4446C26.2712 51.1315 25.5573 51.6497 24.8054 51.9848C23.9664 52.3586 24.3364 54.3871 25.1754 54.0134C26.0627 53.6179 26.9048 53.0069 27.6781 52.1975C29.6452 50.1385 30.9809 47.0065 31.439 43.3781C31.897 39.751 31.4232 36.0624 30.105 32.9916C27.3836 26.6524 21.8673 24.9512 17.8078 29.1999Z" fill="white"/>
<path d="M33.018 30.9999C33.1471 30.9999 33.2776 30.9421 33.3928 30.8214L36.5689 27.4972C36.8785 27.173 36.9614 26.518 36.7542 26.0339C36.5469 25.5499 36.1278 25.4203 35.8182 25.7442L32.6421 29.0685C32.3326 29.3926 32.2496 30.0477 32.4568 30.5317C32.5869 30.8358 32.8004 30.9999 33.018 30.9999Z" fill="white"/>
<path d="M12.093 50.5763L8.91702 53.9006C8.60748 54.2246 8.52454 54.8796 8.73171 55.3637C8.86187 55.6676 9.07534 55.8318 9.29295 55.8318C9.42203 55.8318 9.55247 55.774 9.6677 55.6534L12.8437 52.3291C13.1533 52.0051 13.2362 51.3501 13.029 50.866C12.8216 50.382 12.4027 50.2522 12.093 50.5763Z" fill="white"/>
<path d="M25.1392 48.3272C25.6479 49.5121 26.7308 48.2492 26.2597 47.1518L25.8961 46.305C26.8689 44.7377 26.9006 42.5693 26.458 41.0356C25.7273 38.5039 24.2247 38.2949 22.6991 38.8572L21.1685 35.2915C21.553 35.0963 21.8526 35.1472 21.8822 35.1528C22.7411 35.3465 22.9395 33.2738 22.0814 33.0666C22.0347 33.0554 21.2697 32.8856 20.3994 33.4998L20.1025 32.8084C19.6163 31.6761 18.4959 32.8514 18.9821 33.9838L19.3058 34.7381C18.6048 35.9136 18.402 37.6406 18.8087 39.1271C19.4047 41.3053 20.7402 41.5642 22.0829 41.2074L24.0525 45.7958C23.6622 46.1273 23.3481 46.2305 22.7587 46.2416C21.9063 46.2578 21.9419 48.3713 22.7751 48.3509C23.6945 48.3335 24.2254 48.0773 24.8066 47.5524L25.1392 48.3272ZM20.7573 39.2556C20.4777 39.2234 20.1998 38.8473 20.0494 38.2975C19.9203 37.8258 19.8754 37.1523 20.094 36.5739L21.2422 39.2484C21.0692 39.2681 20.9057 39.2726 20.7573 39.2556ZM23.5469 40.7024C24.6574 40.2575 25.1142 41.5089 25.228 41.9031C25.4415 42.6426 25.4574 43.6461 25.1094 44.472L23.4993 40.7213C23.5154 40.7148 23.5306 40.709 23.5469 40.7024Z" fill="white"/>
</g>
<defs>
<clipPath id="clip0_2044_1592">
<rect width="47" height="72.3816" fill="white"/>
</clipPath>
</defs>
</svg>
