<svg width="76" height="76" viewBox="0 0 76 76" fill="none" xmlns="http://www.w3.org/2000/svg">
<path d="M60.5625 29.436H59.3144C59.0414 24.6451 57.1368 20.0878 53.912 16.5096C50.6873 12.9315 46.3334 10.5443 41.5625 9.7386V2.35487C41.5625 2.04259 41.4374 1.74311 41.2147 1.52229C40.992 1.30148 40.6899 1.17743 40.375 1.17743H35.625C35.3101 1.17743 35.008 1.30148 34.7853 1.52229C34.5626 1.74311 34.4375 2.04259 34.4375 2.35487V9.7386C29.6666 10.5443 25.3127 12.9315 22.088 16.5096C18.8632 20.0878 16.9586 24.6451 16.6856 29.436H15.4375C15.1226 29.436 14.8205 29.5601 14.5978 29.7809C14.3751 30.0017 14.25 30.3012 14.25 30.6135V35.3232C14.25 35.6355 14.3751 35.935 14.5978 36.1558C14.8205 36.3766 15.1226 36.5007 15.4375 36.5007H16.7639L21.3845 73.1473C21.4204 73.4321 21.5599 73.694 21.7768 73.8839C21.9937 74.0738 22.2731 74.1787 22.5625 74.1788H53.4375C53.7269 74.1787 54.0063 74.0738 54.2232 73.8839C54.4401 73.694 54.5796 73.4321 54.6155 73.1473L59.2361 36.5007H60.5625C60.8774 36.5007 61.1795 36.3766 61.4022 36.1558C61.6249 35.935 61.75 35.6355 61.75 35.3232V30.6135C61.75 30.3012 61.6249 30.0017 61.4022 29.7809C61.1795 29.5601 60.8774 29.436 60.5625 29.436ZM56.9394 29.436H41.5625V16.9351C45.0504 17.8287 48.0684 19.9975 50.0104 23.006L52.0125 21.7367C50.8337 19.9139 49.304 18.3393 47.5109 17.1033C45.7177 15.8672 43.6964 14.9938 41.5625 14.5331V12.1182C45.6981 12.9085 49.452 15.0379 52.235 18.1722C55.0181 21.3065 56.6728 25.2684 56.9394 29.436ZM39.1875 29.436H36.8125V11.8344C37.2068 11.8097 37.5986 11.7744 38 11.7744C38.4014 11.7744 38.7932 11.8097 39.1875 11.8344V29.436ZM36.8125 3.53231H39.1875V9.47957C38.7921 9.45719 38.4014 9.41952 38 9.41952C37.5986 9.41952 37.2079 9.45719 36.8125 9.47957V3.53231ZM34.4375 12.1182V29.436H19.0606C19.3272 25.2684 20.9819 21.3065 23.765 18.1722C26.548 15.0379 30.3019 12.9085 34.4375 12.1182ZM52.3889 71.8239H23.6111L19.1579 36.5007H34.4375V42.3879H36.8125V36.5007H39.1875V42.3879H41.5625V36.5007H56.8421L52.3889 71.8239ZM59.375 34.1458H16.625V31.7909H59.375V34.1458Z" fill="#F2F2F2"/>
<path d="M39.6043 46.5172C39.0472 45.6483 38.2863 44.926 37.3866 44.412C36.4868 43.898 35.475 43.6075 34.4375 43.5653C30.5081 43.5653 27.3125 47.7911 27.3125 52.9848C27.3125 58.1785 30.5081 62.4044 34.4375 62.4044C35.8359 62.3824 37.1804 61.8654 38.228 60.9467C38.9601 61.2036 39.7314 61.3331 40.508 61.3294C43.3132 61.2058 45.9598 60.0043 47.8871 57.9795C51.5909 54.3083 52.3438 49.0793 49.5663 46.3229C47.2103 43.988 43.1063 44.1328 39.6043 46.5172ZM29.6875 52.9848C29.6475 51.8654 29.8373 50.7496 30.2456 49.7052C30.6539 48.6607 31.272 47.7095 32.0625 46.9092V47.9972C32.0651 49.9109 32.5142 51.7981 33.3747 53.5112C34.0713 54.8971 34.435 56.424 34.4375 57.9725V60.0495C31.863 60.0495 29.6875 56.8139 29.6875 52.9848ZM36.8125 59.0604V57.9725C36.8117 56.0592 36.3647 54.172 35.5063 52.4585C34.8076 51.0731 34.4418 49.5461 34.4375 47.9972V45.9202C37.012 45.9202 39.1875 49.1558 39.1875 52.9848C39.2275 54.1043 39.0377 55.2201 38.6294 56.2645C38.2211 57.3089 37.603 58.2602 36.8125 59.0604ZM46.208 56.3146C45.4397 57.1403 44.5086 57.8009 43.4723 58.2554C42.4361 58.7098 41.3168 58.9486 40.1838 58.9568L40.9711 58.1762C42.3356 56.8222 43.3641 55.1724 43.9755 53.3569C44.4704 51.8886 45.302 50.5541 46.4051 49.4584L47.8871 47.989C49.7064 49.794 48.9381 53.6065 46.208 56.3146ZM45.5038 47.0223L44.726 47.7935C43.3626 49.1483 42.3343 50.7978 41.7216 52.6128C41.6765 52.747 41.6124 52.8765 41.5613 53.0096V52.9848C41.567 51.4908 41.2895 50.0089 40.7431 48.6165C42.1035 47.5684 43.7811 47.0066 45.5038 47.0223Z" fill="#F2F2F2"/>
<path d="M51.8688 27.352L54.1796 26.8103C53.9725 25.9436 53.6945 25.095 53.3484 24.2729L51.1562 25.1796C51.4527 25.8834 51.691 26.6099 51.8688 27.352Z" fill="#F2F2F2"/>
</svg>
